<svg width="75" height="52" viewBox="0 0 75 52" fill="none" xmlns="http://www.w3.org/2000/svg">
<path d="M4 22.5C2.067 22.5 0.5 24.067 0.5 26C0.5 27.933 2.067 29.5 4 29.5L4 22.5ZM73.4749 28.4749C74.8417 27.108 74.8417 24.892 73.4749 23.5251L51.201 1.25127C49.8342 -0.115568 47.6181 -0.115569 46.2513 1.25127C44.8844 2.6181 44.8844 4.83418 46.2513 6.20101L66.0503 26L46.2513 45.799C44.8844 47.1658 44.8844 49.3819 46.2513 50.7487C47.6181 52.1156 49.8342 52.1156 51.201 50.7487L73.4749 28.4749ZM4 29.5L71 29.5L71 22.5L4 22.5L4 29.5Z" fill="#6A00BD"/>
</svg>
