<?xml version="1.0" encoding="UTF-8"?>
<svg id="Layer_2" data-name="Layer 2" xmlns="http://www.w3.org/2000/svg" xmlns:xlink="http://www.w3.org/1999/xlink" viewBox="0 0 601 90">
  <defs>
    <style>
      .cls-1 {
        fill: #f5f3ed;
        filter: url(#drop-shadow-1);
      }
    </style>
    <filter id="drop-shadow-1" filterUnits="userSpaceOnUse">
      <feOffset dx="0" dy="-3"/>
      <feGaussianBlur result="blur" stdDeviation="2"/>
      <feFlood flood-color="#000" flood-opacity=".45"/>
      <feComposite in2="blur" operator="in"/>
      <feComposite in="SourceGraphic"/>
    </filter>
  </defs>
  <g id="Layer_1-2" data-name="Layer 1">
    <path class="cls-1" d="m55.24,21.4v53.08c-.51.2-1.29.37-2.35.53-1.06.16-2.13.24-3.22.24-2.36,0-4.04-.43-5.04-1.29-.99-.87-1.48-2.32-1.48-4.37v-19.39h-24.48v24.28c-.52.2-1.3.37-2.36.53-1.05.16-2.16.24-3.31.24-2.3,0-3.97-.43-4.99-1.29-1.02-.87-1.54-2.32-1.54-4.37V16.4c.58-.12,1.4-.28,2.45-.48,1.06-.19,2.13-.28,3.22-.28,2.3,0,3.97.4,4.99,1.2s1.54,2.28,1.54,4.46v19.2h24.48v-24.1c.51-.12,1.29-.28,2.35-.48,1.05-.19,2.12-.28,3.21-.28,2.31,0,3.97.41,5,1.24,1.02.84,1.53,2.34,1.53,4.52Zm26.79-5.67c0,1.79-.63,3.35-1.88,4.66-1.24,1.31-2.89,1.97-4.94,1.97s-3.63-.66-4.94-1.97c-1.32-1.31-1.97-2.87-1.97-4.66s.65-3.42,1.97-4.7c1.31-1.28,2.96-1.92,4.94-1.92s3.7.64,4.94,1.92c1.25,1.28,1.88,2.85,1.88,4.7Zm-2.4,14.35c-1.03-.8-2.66-1.2-4.9-1.2-1.15,0-2.23.08-3.22.24-.99.16-1.74.34-2.25.53v40.13c0,2.05.54,3.47,1.63,4.27,1.09.8,2.72,1.2,4.9,1.2,1.15,0,2.2-.08,3.16-.24.96-.16,1.7-.33,2.21-.53v-40.03c0-2.11-.51-3.57-1.53-4.37Zm21.11,47.91c.96-2.02,1.78-4.11,2.45-6.29.67-2.17,1.01-4.03,1.01-5.57,0-1.79-.53-3.04-1.58-3.74-1.06-.7-2.38-1.06-3.98-1.06-1.09,0-2.16.14-3.22.43-1.06.29-1.97.62-2.74,1.01-.38,1.98-.88,4.22-1.49,6.72-.61,2.5-1.28,5.01-2.02,7.54-.74,2.53-1.46,4.85-2.16,6.96,1.41,1.34,3.14,2.02,5.18,2.02,2.37,0,4.32-1.09,5.86-3.26.83-1.15,1.73-2.74,2.69-4.75Zm42.72-61.15c-1.02-.8-2.65-1.2-4.89-1.2-1.09,0-2.18.09-3.27.28-1.09.2-1.89.36-2.4.48v53.19c0,2.05.51,3.5,1.54,4.37,1.02.86,2.69,1.29,4.99,1.29,1.15,0,2.24-.08,3.26-.24,1.03-.16,1.8-.33,2.31-.53V21.3c0-2.18-.51-3.66-1.54-4.46Zm44.69,11.66c-2.4.38-4.5.99-6.29,1.82-2.56,1.09-3.84,2.78-3.84,5.09,0,.96.25,1.89.77,2.78.51.9,1.09,1.6,1.73,2.11,1.86-.9,3.97-1.66,6.34-2.3,2.37-.64,4.8-.96,7.3-.96,3.2,0,5.68.58,7.44,1.73,1.76,1.15,2.64,3.01,2.64,5.57v1.73l-13.06,1.34c-5.18.51-9.14,1.91-11.86,4.18-2.72,2.27-4.08,5.55-4.08,9.84,0,4.87,1.82,8.53,5.47,10.99,3.65,2.46,8.67,3.7,15.07,3.7,3.46,0,6.56-.34,9.31-1.01,2.75-.67,5.02-1.52,6.82-2.54,1.15-.7,2.1-1.5,2.83-2.4.74-.9,1.1-2.11,1.1-3.65v-22.08c0-5.7-1.86-9.87-5.57-12.53-3.71-2.66-8.71-3.98-14.98-3.98-2.37,0-4.75.19-7.15.58Zm.82,36.96c-1.47-1.09-2.21-2.56-2.21-4.42s.69-3.15,2.06-4.08c1.38-.93,3.38-1.49,6-1.68l9.5-.96v10.94c-.71.45-1.82.86-3.36,1.25-1.54.38-3.26.58-5.18.58-3.07,0-5.34-.54-6.82-1.63Zm103.97-30.62c-1.6-2.44-3.77-4.19-6.53-5.28-2.75-1.09-5.82-1.64-9.21-1.64-3.71,0-6.91.6-9.6,1.78-1.94.85-3.7,1.83-5.27,2.94-1.51-1.4-3.33-2.49-5.48-3.28-2.63-.96-5.51-1.44-8.64-1.44s-6.16.42-9.08,1.25c-2.91.83-5.36,1.92-7.34,3.27-1.28.83-2.24,1.74-2.88,2.73-.64.99-.96,2.26-.96,3.79v30.82c0,2.05.53,3.47,1.58,4.27,1.06.8,2.68,1.2,4.85,1.2,1.15,0,2.21-.08,3.17-.24.96-.16,1.7-.33,2.21-.53v-34.75c.96-.64,2.13-1.2,3.5-1.68,1.38-.48,2.9-.72,4.56-.72,2.31,0,4.21.59,5.71,1.78,1.51,1.18,2.26,3.02,2.26,5.52v25.15c0,2.05.51,3.47,1.54,4.27,1.02.8,2.65,1.2,4.89,1.2,1.09,0,2.13-.08,3.12-.24.99-.16,1.75-.33,2.26-.53v-31.2c0-.95-.11-1.89-.32-2.79.99-.84,2.14-1.54,3.44-2.1,1.63-.71,3.31-1.06,5.04-1.06,2.37,0,4.25.59,5.66,1.78,1.41,1.18,2.11,3.02,2.11,5.52v25.15c0,2.05.53,3.47,1.59,4.27,1.05.8,2.7,1.2,4.94,1.2,1.09,0,2.13-.08,3.12-.24.99-.16,1.71-.33,2.16-.53v-30.24c0-3.84-.8-6.97-2.4-9.4Zm79.3.19c0,4.09-.93,7.65-2.79,10.65-1.85,3.01-4.57,5.35-8.16,7.01-3.58,1.67-8,2.5-13.24,2.5h-7.68v19.29c-.52.2-1.3.37-2.36.53-1.05.16-2.16.24-3.31.24-2.3,0-3.97-.43-4.99-1.29-1.03-.87-1.54-2.32-1.54-4.37V21.2c0-1.15.34-2.04,1.01-2.68.67-.64,1.55-1.16,2.64-1.54,2.05-.64,4.48-1.12,7.3-1.44,2.81-.32,5.44-.48,7.87-.48,8.45,0,14.77,1.79,18.96,5.38,4.19,3.58,6.29,8.44,6.29,14.59Zm-12.29.09c0-3.45-1.07-6.01-3.22-7.68-2.14-1.66-5.2-2.49-9.16-2.49-1.41,0-2.73.05-3.94.14-1.22.1-2.34.24-3.36.43v19.97h7.1c3.91,0,6.98-.88,9.22-2.64s3.36-4.33,3.36-7.73Zm31.34-6.62c-2.4.38-4.5.99-6.29,1.82-2.56,1.09-3.84,2.78-3.84,5.09,0,.96.25,1.89.77,2.78.51.9,1.09,1.6,1.73,2.11,1.86-.9,3.97-1.66,6.34-2.3,2.37-.64,4.8-.96,7.3-.96,3.2,0,5.68.58,7.44,1.73,1.76,1.15,2.64,3.01,2.64,5.57v1.73l-13.06,1.34c-5.18.51-9.14,1.91-11.86,4.18-2.72,2.27-4.08,5.55-4.08,9.84,0,4.87,1.82,8.53,5.47,10.99,3.65,2.46,8.67,3.7,15.07,3.7,3.46,0,6.56-.34,9.31-1.01,2.75-.67,5.02-1.52,6.82-2.54,1.15-.7,2.1-1.5,2.83-2.4.74-.9,1.1-2.11,1.1-3.65v-22.08c0-5.7-1.86-9.87-5.57-12.53-3.71-2.66-8.71-3.98-14.98-3.98-2.37,0-4.75.19-7.15.58Zm.82,36.96c-1.47-1.09-2.21-2.56-2.21-4.42s.69-3.15,2.06-4.08c1.38-.93,3.38-1.49,6-1.68l9.5-.96v10.94c-.71.45-1.82.86-3.36,1.25-1.54.38-3.26.58-5.18.58-3.07,0-5.34-.54-6.82-1.63Zm67.49-35.9c-1.34,5.76-2.93,11.68-4.75,17.76-1.82,6.08-3.7,11.94-5.62,17.57h-.38c-.38-1.21-.86-2.7-1.44-4.46-.58-1.76-1.2-3.62-1.87-5.57-.67-1.95-1.26-3.76-1.78-5.42l-4.9-16.03c-.51-1.92-1.3-3.25-2.35-3.98-1.06-.74-2.42-1.1-4.08-1.1-1.22,0-2.38.26-3.5.77-1.12.51-2.03,1.15-2.74,1.92.64,2.37,1.46,5.09,2.45,8.16.99,3.07,2.1,6.27,3.31,9.6,1.21,3.33,2.43,6.56,3.65,9.7,1.22,3.14,2.35,5.92,3.41,8.35,1.06,2.43,1.94,4.32,2.64,5.66.51,1.02,1.41,1.78,2.69,2.26,1.28.48,2.82.72,4.61.72,1.54,0,2.93-.16,4.18-.48s2.16-.7,2.74-1.15c1.09-2.05,2.3-4.59,3.65-7.63,1.34-3.04,2.67-6.25,3.98-9.65,1.31-3.39,2.51-6.69,3.6-9.89,1.09-3.2,1.97-6,2.64-8.4.67-2.4,1.01-4.11,1.01-5.14,0-1.66-.54-2.88-1.63-3.65-1.09-.77-2.46-1.15-4.13-1.15-2.05,0-3.84.42-5.38,1.25Zm31.1-16.85c-1.02-.8-2.69-1.2-4.99-1.2-1.09,0-2.13.09-3.12.29-.99.19-1.71.35-2.16.48v57.5c0,2.05.53,3.47,1.58,4.27,1.06.8,2.67,1.2,4.85,1.2,1.15,0,2.21-.08,3.17-.24.96-.16,1.69-.33,2.21-.53V16.98c0-2.05-.52-3.47-1.54-4.27Zm56.02,26.49c-1.95-3.62-4.67-6.4-8.16-8.35-3.49-1.95-7.57-2.93-12.24-2.93s-8.77.98-12.29,2.93c-3.52,1.95-6.27,4.72-8.26,8.3-1.99,3.58-2.98,7.84-2.98,12.77s.98,9.28,2.93,12.86c1.95,3.58,4.69,6.35,8.21,8.3,3.52,1.95,7.65,2.93,12.38,2.93s8.85-.98,12.34-2.93c3.49-1.95,6.19-4.74,8.11-8.35,1.92-3.62,2.88-7.89,2.88-12.82s-.98-9.1-2.93-12.72Zm-12.14,2.02c1.98,2.59,2.98,6.16,2.98,10.7s-.99,8.29-2.98,10.85c-1.98,2.56-4.74,3.84-8.26,3.84s-6.37-1.26-8.35-3.79c-1.98-2.53-2.98-6.16-2.98-10.9s1.01-8.19,3.02-10.75c2.02-2.56,4.78-3.84,8.3-3.84s6.27,1.3,8.26,3.89Zm56.73,11.52c-2.37-2.34-6.14-4.11-11.33-5.33l-4.9-1.15c-1.98-.45-3.39-1.06-4.22-1.82-.83-.77-1.25-1.69-1.25-2.78,0-1.47.72-2.61,2.16-3.41,1.44-.8,3.41-1.2,5.9-1.2,1.66,0,3.33.18,4.99.53,1.66.35,3.15.8,4.46,1.34,1.31.54,2.35,1.04,3.12,1.49.77-.45,1.39-1.1,1.87-1.97.48-.86.72-1.84.72-2.93,0-1.6-.69-2.98-2.06-4.13-1.38-1.15-3.28-2.03-5.71-2.64-2.43-.61-5.18-.91-8.26-.91-5.89,0-10.5,1.3-13.82,3.89-3.33,2.59-4.99,5.9-4.99,9.94,0,3.65,1.14,6.56,3.41,8.74,2.27,2.18,5.74,3.78,10.42,4.8l5.47,1.44c1.98.38,3.46,1.01,4.42,1.87s1.44,2,1.44,3.41c0,3.33-2.72,4.99-8.16,4.99-3.01,0-5.7-.45-8.06-1.34-2.37-.9-4.45-1.92-6.24-3.07-.83.51-1.5,1.23-2.02,2.16-.51.93-.77,1.94-.77,3.02,0,2.56,1.63,4.61,4.9,6.14,3.26,1.54,7.46,2.3,12.58,2.3,6.34,0,11.17-1.26,14.5-3.79,3.33-2.53,4.99-6.03,4.99-10.51,0-3.71-1.19-6.74-3.55-9.07Z"/>
  </g>
</svg>