<?xml version="1.0" encoding="utf-8"?>
<!-- Generator: Adobe Illustrator 27.4.1, SVG Export Plug-In . SVG Version: 6.00 Build 0)  -->
<svg version="1.1" id="Layer_1" xmlns="http://www.w3.org/2000/svg" xmlns:xlink="http://www.w3.org/1999/xlink" x="0px" y="0px"
	 viewBox="0 0 135 135" style="enable-background:new 0 0 135 135;" xml:space="preserve">
<path style="fill:#1C3E68;" d="M34.3,64.8l30.5-30.5l-10-10l-14,14c-0.2,0.2-0.4,0.3-0.6,0.4c-0.2,0.1-0.5,0.1-0.7,0.1
	s-0.5,0-0.7-0.1c-0.2-0.1-0.4-0.2-0.6-0.4l-2.5-2.5c-0.7-0.7-0.7-1.8,0-2.5l14-14l-7.6-7.6c-2.8-2.8-7.4-2.8-10.2,0L11.6,31.9
	c-2.8,2.8-2.8,7.4,0,10.2L34.3,64.8z M122.3,38.3c4.3-4.3,4.2-11.1,0-15.4l-10.3-10.3c-4.3-4.3-11.1-4.3-15.4,0L86.2,23.1l25.6,25.6
	L122.3,38.3z M81.1,28.2L13.8,95.5l-4.3,24.3c-0.6,3.3,2.3,6.1,5.6,5.6l24.3-4.3l67.3-67.3L81.1,28.2z M123.4,92.9l-7.6-7.6l-14,14
	c-0.7,0.7-1.8,0.7-2.5,0l-2.5-2.5c-0.7-0.7-0.7-1.8,0-2.5l14-14l-10-10l-30.5,30.5l22.7,22.7c2.8,2.8,7.4,2.8,10.2,0l20.3-20.3
	C126.2,100.3,126.2,95.7,123.4,92.9z"/>
</svg>
