<svg width="44" height="44" viewBox="0 0 44 44" fill="none" xmlns="http://www.w3.org/2000/svg">
<path d="M37.3937 17.925C37.6375 17.7313 38 17.9125 38 18.2188V31C38 32.6562 36.6562 34 35 34H9C7.34375 34 6 32.6562 6 31V18.225C6 17.9125 6.35625 17.7375 6.60625 17.9312C8.00625 19.0187 9.8625 20.4 16.2375 25.0312C17.5563 25.9937 19.7812 28.0188 22 28.0063C24.2313 28.025 26.5 25.9563 27.7687 25.0312C34.1437 20.4 35.9937 19.0125 37.3937 17.925ZM22 26C23.45 26.025 25.5375 24.175 26.5875 23.4125C34.8812 17.3938 35.5125 16.8687 37.425 15.3687C37.7875 15.0875 38 14.65 38 14.1875V13C38 11.3438 36.6562 10 35 10H9C7.34375 10 6 11.3438 6 13V14.1875C6 14.65 6.2125 15.0812 6.575 15.3687C8.4875 16.8625 9.11875 17.3938 17.4125 23.4125C18.4625 24.175 20.55 26.025 22 26Z" fill="#F5F3ED"/>
</svg>
