<?xml version="1.0" encoding="utf-8"?>
<!-- Generator: Adobe Illustrator 27.4.1, SVG Export Plug-In . SVG Version: 6.00 Build 0)  -->
<svg version="1.1" id="Layer_1" xmlns="http://www.w3.org/2000/svg" xmlns:xlink="http://www.w3.org/1999/xlink" x="0px" y="0px"
	 viewBox="0 0 135 135" style="enable-background:new 0 0 135 135;" xml:space="preserve">
<path style="fill:#1C3E68;" d="M53.5,68.4c1.3,1.3,3.4,1.3,4.7,0l2.4-2.4c1.3-1.3,1.3-3.4,0-4.7l-7.5-7.5l7.5-7.5
	c1.3-1.3,1.3-3.4,0-4.7l-2.4-2.4c-1.3-1.3-3.4-1.3-4.7,0L41.2,51.4c-1.3,1.3-1.3,3.4,0,4.7L53.5,68.4z M73.6,66l2.4,2.4
	c1.3,1.3,3.4,1.3,4.7,0L93,56.1c1.3-1.3,1.3-3.4,0-4.7L80.7,39.2c-1.3-1.3-3.4-1.3-4.7,0l-2.4,2.4c-1.3,1.3-1.3,3.4,0,4.7l7.5,7.5
	l-7.5,7.5C72.3,62.6,72.3,64.7,73.6,66z M130.8,100.7H80c-0.2,4.2-3.1,6.7-6.9,6.7H60.4c-3.9,0-6.9-3.7-6.9-6.7H3.4
	c-1.8,0-3.4,1.5-3.4,3.4v3.4c0,7.4,6,13.4,13.4,13.4h107.4c7.4,0,13.4-6,13.4-13.4v-3.4C134.2,102.2,132.7,100.7,130.8,100.7z
	 M120.8,23.6c0-5.5-4.5-10.1-10.1-10.1H23.5c-5.5,0-10.1,4.5-10.1,10.1V94h107.4V23.6z M107.4,80.6H26.8V26.9h80.5V80.6z"/>
</svg>
