<svg width="44" height="44" viewBox="0 0 44 44" fill="none" xmlns="http://www.w3.org/2000/svg">
<path d="M13.1629 37.9993H6.52857V16.635H13.1629V37.9993ZM9.84214 13.7207C7.72071 13.7207 6 11.9636 6 9.84214C6 8.82314 6.4048 7.84588 7.12534 7.12534C7.84588 6.4048 8.82314 6 9.84214 6C10.8611 6 11.8384 6.4048 12.5589 7.12534C13.2795 7.84588 13.6843 8.82314 13.6843 9.84214C13.6843 11.9636 11.9629 13.7207 9.84214 13.7207ZM37.9929 37.9993H31.3729V27.5993C31.3729 25.1207 31.3229 21.9421 27.9236 21.9421C24.4743 21.9421 23.9457 24.635 23.9457 27.4207V37.9993H17.3186V16.635H23.6814V19.5493H23.7743C24.66 17.8707 26.8236 16.0993 30.0514 16.0993C36.7657 16.0993 38 20.5207 38 26.2636V37.9993H37.9929Z" fill="#F5F3ED"/>
</svg>
