<svg width="44" height="44" viewBox="0 0 44 44" fill="none" xmlns="http://www.w3.org/2000/svg">
<path d="M9 14.25H35C35.5523 14.25 36 13.8023 36 13.25V10.75C36 10.1977 35.5523 9.75 35 9.75H9C8.44769 9.75 8 10.1977 8 10.75V13.25C8 13.8023 8.44769 14.25 9 14.25ZM9 24.25H35C35.5523 24.25 36 23.8023 36 23.25V20.75C36 20.1977 35.5523 19.75 35 19.75H9C8.44769 19.75 8 20.1977 8 20.75V23.25C8 23.8023 8.44769 24.25 9 24.25ZM9 34.25H35C35.5523 34.25 36 33.8023 36 33.25V30.75C36 30.1977 35.5523 29.75 35 29.75H9C8.44769 29.75 8 30.1977 8 30.75V33.25C8 33.8023 8.44769 34.25 9 34.25Z" fill="#1C3E68"/>
</svg>
