<?xml version="1.0" encoding="utf-8"?>
<!-- Generator: Adobe Illustrator 27.2.0, SVG Export Plug-In . SVG Version: 6.00 Build 0)  -->
<svg version="1.1" id="Layer_1" xmlns="http://www.w3.org/2000/svg" xmlns:xlink="http://www.w3.org/1999/xlink" x="0px" y="0px"
	 viewBox="0 0 512 512" enable-background="new 0 0 512 512" xml:space="preserve">
<g display="none">
	<path display="inline" fill-rule="evenodd" clip-rule="evenodd" fill="#6A00BD" d="M-1253.8,275.7v52.4h19.6v-52.4
		c0-3.8,0.9-7.2,2.7-10.3c1.9-3.1,4.5-5.6,7.6-7.4c3.2-1.8,6.8-2.7,10.7-2.7s7.4,0.9,10.5,2.7c3.2,1.8,5.8,4.3,7.7,7.4
		c1.9,3.1,2.9,6.5,2.9,10.3v52.4h19.6v-52.4c0-3.8,0.9-7.2,2.7-10.3c1.9-3.1,4.5-5.6,7.7-7.4s6.8-2.7,10.7-2.7c4,0,7.6,0.9,10.7,2.7
		s5.6,4.3,7.4,7.4c1.9,3.1,2.9,6.5,2.9,10.3v52.4h19.6v-52.4c0-6.8-1.6-12.9-4.8-18.6c-3.2-5.7-7.8-10.2-13.9-13.6
		c-6-3.4-13.2-5.2-21.8-5.2c-4.1,0-8.1,0.5-12,1.5c-3.8,1-7.3,2.7-10.7,5c-3.2,2.2-6,4.9-8.2,8.2h-0.2c-2.3-3.3-5.1-6.1-8.4-8.2
		c-3.2-2.3-6.7-4-10.5-5c-3.8-1-7.7-1.5-11.9-1.5c-8.5,0-15.7,1.7-21.8,5.2c-6.1,3.3-10.7,7.8-13.9,13.6
		C-1252.2,262.7-1253.8,268.9-1253.8,275.7z M-1067.4,325.1c6.3,3.3,13.7,5,22.2,5s15.8-1.7,22-5c6.3-3.4,11.2-8.1,14.6-14.1
		c3.6-6,5.3-12.7,5.3-20.1v-50.5h-19.8v50.3c0,4.5-1,8.4-3.1,11.9c-1.9,3.3-4.6,6-8.1,7.9c-3.3,1.8-7,2.7-11,2.7
		c-4,0-7.7-0.9-11.2-2.7c-3.3-1.9-6-4.6-8.1-7.9c-1.9-3.4-2.9-7.4-2.9-11.9v-50.3h-19.8v50.5c0,7.4,1.7,14.1,5.2,20.1
		C-1078.6,317-1073.7,321.7-1067.4,325.1z M-980,311.2v16.8h44.3c5.3,0,10-1.2,14.1-3.6c4.2-2.5,7.6-5.8,10-10
		c2.4-4.2,3.6-8.8,3.6-13.6c0-6-1.2-10.9-3.6-14.8c-2.3-3.9-5.7-6.8-10.1-8.8c-4.5-1.9-9.9-2.9-16.1-2.9h-16.7
		c-2.9,0-5.2-0.9-6.9-2.6c-1.7-1.7-2.6-3.7-2.6-6c0-2.4,0.9-4.4,2.6-6c1.7-1.7,3.9-2.6,6.5-2.6h38.8v-16.8h-40.7
		c-5,0-9.6,1.2-13.6,3.6c-4,2.4-7.2,5.6-9.6,9.4c-2.3,3.9-3.4,8.2-3.4,12.9c0,5.8,1.3,10.7,3.8,14.6c2.5,3.8,6,6.6,10.3,8.4
		c4.4,1.8,9.3,2.7,14.9,2.7h17.2c1.9,0,3.7,0.5,5.2,1.4c1.5,0.8,2.6,1.9,3.4,3.3c0.8,1.4,1.2,3,1.2,4.8c0,1.6-0.5,3.1-1.4,4.6
		c-0.8,1.5-2,2.7-3.6,3.6c-1.5,0.9-3.3,1.4-5.3,1.4H-980z M-870,322.6c7.4,3.7,16.1,5.5,25.9,5.5h23.5v-16.8h-23.5
		c-4.9,0-9.4-0.7-13.4-2.2c-4-1.6-7.3-3.9-10-6.9c-2.6-3.1-4.3-6.9-5-11.5h62.2c0.2-0.8,0.4-1.9,0.5-3.4c0.1-1.5,0.2-2.8,0.2-4
		c0-8.4-1.5-15.9-4.5-22.7c-2.9-6.8-7.3-12.1-13.4-16.1c-6.1-4-13.8-6-23.2-6c-8.4,0-15.7,1.9-22.2,5.8c-6.4,3.9-11.5,9.3-15.1,16.1
		c-3.7,6.9-5.5,14.8-5.5,23.9c0,8.6,2.1,16.2,6.2,22.8C-883.1,313.6-877.4,318.8-870,322.6z M-829.3,277.2h-43.3
		c0.3-2.7,1-5.4,1.9-8.1c1-2.7,2.5-5.2,4.3-7.2c1.8-2.2,4.1-3.9,6.7-5.2c2.6-1.4,5.7-2.1,9.1-2.1c3,0,5.6,0.5,7.9,1.4
		c2.3,0.8,4.2,1.9,5.8,3.4c1.7,1.4,3.1,3,4.1,5c1.1,1.9,1.9,4,2.4,6.2C-829.8,272.9-829.4,275-829.3,277.2z M-771.3,325.1
		c6.3,3.3,13.7,5,22.2,5c8.5,0,15.8-1.7,22-5c6.3-3.4,11.2-8.1,14.6-14.1c3.5-6,5.3-12.7,5.3-20.1v-50.5H-727v50.3
		c0,4.5-1,8.4-3.1,11.9c-1.9,3.3-4.6,6-8.1,7.9c-3.3,1.8-7,2.7-11,2.7c-4,0-7.7-0.9-11.2-2.7c-3.3-1.9-6-4.6-8.1-7.9
		c-1.9-3.4-2.9-7.4-2.9-11.9v-50.3h-19.8v50.5c0,7.4,1.7,14.1,5.2,20.1C-782.5,317-777.6,321.7-771.3,325.1z M-683.6,275.7v52.4
		h19.6v-52.4c0-3.8,0.9-7.2,2.7-10.3c1.9-3.1,4.5-5.6,7.6-7.4c3.2-1.8,6.8-2.7,10.7-2.7c3.9,0,7.4,0.9,10.5,2.7
		c3.2,1.8,5.8,4.3,7.7,7.4c1.9,3.1,2.9,6.5,2.9,10.3v52.4h19.6v-52.4c0-3.8,0.9-7.2,2.7-10.3c1.9-3.1,4.5-5.6,7.7-7.4
		c3.2-1.8,6.8-2.7,10.7-2.7c4,0,7.6,0.9,10.7,2.7c3.1,1.8,5.6,4.3,7.4,7.4c1.9,3.1,2.9,6.5,2.9,10.3v52.4h19.6v-52.4
		c0-6.8-1.6-12.9-4.8-18.6c-3.2-5.7-7.8-10.2-13.9-13.6c-6-3.4-13.2-5.2-21.8-5.2c-4.1,0-8.1,0.5-12,1.5c-3.8,1-7.3,2.7-10.7,5
		c-3.2,2.2-6,4.9-8.2,8.2h-0.2c-2.3-3.3-5.1-6.1-8.4-8.2c-3.2-2.3-6.7-4-10.5-5c-3.8-1-7.7-1.5-11.9-1.5c-8.5,0-15.7,1.7-21.8,5.2
		c-6.1,3.3-10.7,7.8-13.9,13.6C-682,262.7-683.6,268.9-683.6,275.7z"/>
	<path display="inline" fill="#6A00BD" d="M-355.6,302.2c-1.6-13.5-17-30.3-17-46.4c0-9.8,5.7-20,10.5-29.4c0,0,0-0.1,0-0.1
		c0.9-1.7,1.7-3.4,2.5-5.1c1.7-3.8,3-7.7,4-11.8v0c1.2-5,1.8-10.2,1.8-15.5c0-37.4-30.3-56.5-67.7-56.5s-67.7,19.1-67.7,56.5
		c0,5.9,0.7,11.6,2.2,17c2.1,13,9.3,29.4,9.3,44.8c0,15.6-7.4,31.7-9.3,45c-1.4,5.4-2.1,11-2.1,16.9c0,37,30.1,56.5,67.1,56.8
		c0.2,0,0.4,0,0.7,0c37.3,0,67.5-19.5,67.5-56.8C-353.8,312.4-354.4,307.2-355.6,302.2L-355.6,302.2z M-381.2,353.2
		c-10.1,8.8-24.4,10.2-40,10.2c-0.2,0-0.4,0-0.6,0c-15.6-0.1-29.7-1.6-39.8-10.4c-10.2-8.9-15.6-21.1-15.6-35.3
		c0-4.7,0.6-9.4,1.7-13.9l0.2-0.6l0.1-0.6c0.7-4.4,2.1-9.6,3.7-15.2c2.7-9.6,5.8-20.4,5.8-31.6c0-11.3-3.1-22.4-5.9-32.2
		c-1.5-5.3-2.9-10.3-3.6-14.5l-0.1-0.5l-0.1-0.5c-1.2-4.6-1.8-9.3-1.8-14.1c0-14.4,5.4-26.7,15.7-35.5c10.2-8.8,24.4-9.8,40.2-9.8
		c15.7,0,30,1.1,40.2,9.8c10.3,8.9,15.7,21.2,15.7,35.5c0,4.3-0.5,8.6-1.5,12.8l-0.1,0.4c-0.8,3.2-1.8,6.3-3.1,9.3
		c-0.6,1.3-1.3,2.7-2.2,4.5c0,0.1-0.1,0.2-0.1,0.2c-0.4,0.7-0.8,1.5-1.1,2.2c-5,9.7-10.6,20.6-10.6,32.5c0,11.8,5.6,22.6,10.5,32.1
		c2.8,5.5,5.8,11.2,6.4,15.1v0.5l0.3,1.3c1,4.2,1.5,8.5,1.5,12.8C-365.5,332.1-371,344.4-381.2,353.2z M-421.5,172
		c-18.2,0-33,14.8-33,33c0,18.2,14.8,33,33,33s33-14.8,33-33C-388.5,186.7-403.3,172-421.5,172z M-421.5,229.5
		c-13.5,0-24.5-11-24.5-24.5c0-13.5,11-24.5,24.5-24.5c13.5,0,24.5,11,24.5,24.5C-397,218.5-408,229.5-421.5,229.5z M-421.5,273.7
		c-18.2,0-33,14.8-33,33c0,18.2,14.8,33,33,33s33-14.8,33-33C-388.5,288.5-403.3,273.7-421.5,273.7z M-421.5,331.2
		c-13.5,0-24.5-11-24.5-24.5c0-13.5,11-24.5,24.5-24.5c13.5,0,24.5,11,24.5,24.5C-397,320.2-408,331.2-421.5,331.2z"/>
</g>
<path fill-rule="evenodd" clip-rule="evenodd" fill="#6A00BD" d="M412,512H100C45,512,0,467,0,412V100C0,45,45,0,100,0h312
	c55,0,100,45,100,100v312C512,467,467,512,412,512z"/>
<g>
	<path fill-rule="evenodd" clip-rule="evenodd" fill="#6A00BD" d="M-1253.8,311.8v53.3h19.9v-53.3c0-3.8,0.9-7.3,2.8-10.5
		c2-3.1,4.5-5.6,7.7-7.5c3.3-1.9,6.9-2.8,10.8-2.8c4,0,7.5,0.9,10.7,2.8c3.3,1.9,5.9,4.4,7.9,7.5s3,6.6,3,10.5v53.3h19.9v-53.3
		c0-3.8,0.9-7.3,2.8-10.5c2-3.1,4.6-5.6,7.9-7.5c3.3-1.9,6.9-2.8,10.8-2.8c4.1,0,7.7,0.9,10.8,2.8c3.1,1.9,5.6,4.4,7.5,7.5
		c2,3.1,3,6.6,3,10.5v53.3h19.9v-53.3c0-6.9-1.6-13.2-4.9-18.9c-3.3-5.8-8-10.4-14.2-13.8c-6.1-3.5-13.5-5.2-22.2-5.2
		c-4.2,0-8.3,0.5-12.2,1.6c-3.8,1-7.5,2.7-10.8,5.1c-3.3,2.2-6.1,5-8.4,8.4h-0.2c-2.3-3.4-5.2-6.2-8.6-8.4c-3.3-2.3-6.8-4-10.7-5.1
		c-3.8-1-7.9-1.6-12.1-1.6c-8.6,0-16,1.7-22.2,5.2c-6.2,3.4-10.9,8-14.2,13.8C-1252.1,298.7-1253.8,304.9-1253.8,311.8z
		 M-1064.2,362.1c6.4,3.4,13.9,5.1,22.5,5.1c8.6,0,16.1-1.7,22.4-5.1c6.4-3.5,11.4-8.3,14.9-14.3c3.6-6.1,5.4-12.9,5.4-20.4V276
		h-20.1v51.2c0,4.5-1,8.6-3.1,12.1c-2,3.4-4.7,6.1-8.2,8c-3.4,1.9-7.1,2.8-11.2,2.8c-4.1,0-7.9-0.9-11.4-2.8c-3.4-2-6.1-4.7-8.2-8
		c-2-3.5-3-7.5-3-12.1V276h-20.1v51.4c0,7.6,1.7,14.4,5.2,20.4S-1070.6,358.6-1064.2,362.1z M-975.3,348v17.1h45.1
		c5.4,0,10.1-1.2,14.3-3.7c4.3-2.6,7.7-5.9,10.1-10.1c2.4-4.3,3.7-8.9,3.7-13.8c0-6.1-1.2-11.1-3.7-15c-2.3-4-5.8-6.9-10.3-8.9
		c-4.5-2-10-3-16.4-3h-16.9c-2.9,0-5.2-0.9-7-2.6c-1.7-1.7-2.6-3.8-2.6-6.1c0-2.4,0.9-4.5,2.6-6.1c1.7-1.7,4-2.6,6.6-2.6h39.5V276
		h-41.4c-5.1,0-9.7,1.2-13.8,3.7c-4.1,2.4-7.3,5.6-9.8,9.6c-2.3,4-3.5,8.3-3.5,13.1c0,5.9,1.3,10.9,3.8,14.9
		c2.6,3.8,6.1,6.7,10.5,8.6c4.4,1.9,9.5,2.8,15.2,2.8h17.5c2,0,3.7,0.5,5.2,1.4c1.5,0.8,2.7,1.9,3.5,3.3c0.8,1.4,1.2,3,1.2,4.9
		c0,1.6-0.5,3.2-1.4,4.7c-0.8,1.5-2,2.7-3.7,3.7c-1.5,0.9-3.3,1.4-5.4,1.4H-975.3z M-863.4,359.5c7.6,3.7,16.4,5.6,26.4,5.6h23.9
		V348H-837c-5,0-9.6-0.8-13.6-2.3c-4.1-1.6-7.5-4-10.1-7c-2.7-3.1-4.4-7-5.1-11.7h63.3c0.2-0.8,0.4-2,0.5-3.5c0.1-1.5,0.2-2.9,0.2-4
		c0-8.5-1.5-16.2-4.5-23.1c-2.9-6.9-7.5-12.3-13.6-16.4c-6.2-4.1-14-6.1-23.6-6.1c-8.5,0-16,2-22.5,5.9c-6.5,4-11.7,9.4-15.4,16.4
		c-3.7,7-5.6,15.1-5.6,24.3c0,8.7,2.1,16.5,6.3,23.2C-876.7,350.4-870.9,355.7-863.4,359.5z M-822,313.4h-44c0.3-2.8,1-5.5,1.9-8.2
		c1-2.8,2.5-5.2,4.4-7.3c1.9-2.2,4.1-4,6.8-5.2c2.7-1.4,5.8-2.1,9.3-2.1c3,0,5.7,0.5,8,1.4c2.3,0.8,4.3,2,5.9,3.5
		c1.7,1.4,3.1,3.1,4.2,5.1c1.2,2,2,4.1,2.4,6.3C-822.5,309-822.1,311.2-822,313.4z M-763,362.1c6.4,3.4,13.9,5.1,22.5,5.1
		c8.6,0,16.1-1.7,22.4-5.1c6.4-3.5,11.4-8.3,14.9-14.3c3.6-6.1,5.4-12.9,5.4-20.4V276H-718v51.2c0,4.5-1,8.6-3.1,12.1
		c-2,3.4-4.7,6.1-8.2,8c-3.4,1.9-7.1,2.8-11.2,2.8c-4.1,0-7.9-0.9-11.4-2.8c-3.4-2-6.1-4.7-8.2-8c-2-3.5-3-7.5-3-12.1V276h-20.1
		v51.4c0,7.6,1.7,14.4,5.2,20.4C-774.4,353.9-769.5,358.6-763,362.1z M-673.8,311.8v53.3h19.9v-53.3c0-3.8,0.9-7.3,2.8-10.5
		c2-3.1,4.5-5.6,7.7-7.5c3.3-1.9,6.9-2.8,10.8-2.8c4,0,7.5,0.9,10.7,2.8c3.3,1.9,5.9,4.4,7.9,7.5c2,3.1,3,6.6,3,10.5v53.3h19.9
		v-53.3c0-3.8,0.9-7.3,2.8-10.5c2-3.1,4.6-5.6,7.9-7.5c3.3-1.9,6.9-2.8,10.8-2.8c4.1,0,7.7,0.9,10.8,2.8c3.1,1.9,5.7,4.4,7.5,7.5
		c2,3.1,3,6.6,3,10.5v53.3h19.9v-53.3c0-6.9-1.6-13.2-4.9-18.9c-3.3-5.8-8-10.4-14.2-13.8c-6.1-3.5-13.5-5.2-22.2-5.2
		c-4.2,0-8.3,0.5-12.2,1.6c-3.8,1-7.5,2.7-10.8,5.1c-3.3,2.2-6.1,5-8.4,8.4h-0.2c-2.3-3.4-5.2-6.2-8.6-8.4c-3.3-2.3-6.8-4-10.7-5.1
		s-7.9-1.6-12.1-1.6c-8.6,0-16,1.7-22.2,5.2c-6.2,3.4-10.9,8-14.2,13.8C-672.1,298.7-673.8,304.9-673.8,311.8z"/>
	<path fill="#6A00BD" d="M-544.5,269.2c11,8.4,34.1,9.1,45.9,20.5c7.2,7,10.6,18.3,14,28.5c0,0,0,0.1,0,0.1c0.6,1.9,1.3,3.7,1.9,5.4
		c1.6,3.9,3.5,7.7,5.8,11.2l0,0c2.8,4.4,6.2,8.5,10,12.3c27.3,26.5,62.7,17.9,89.2-9.3c26.5-27.3,34-62.9,6.8-89.4
		c-4.3-4.2-9-7.7-14-10.5c-11-7.7-28-14-39.3-25c-11.4-11-17.9-27.9-26.2-38.7c-2.9-4.8-6.5-9.4-10.8-13.5
		c-27-26.2-62.6-18.1-89,8.7c-0.2,0.2-0.3,0.3-0.5,0.5c-26.4,27.2-33.6,63.1-6.4,89.5C-553.2,263.3-549,266.6-544.5,269.2
		L-544.5,269.2z M-563.6,214.3c0.8-13.6,9.8-25,21-36.4c0.1-0.1,0.3-0.3,0.4-0.4c11.1-11.3,22.3-20.5,35.8-21.7
		c13.7-1.2,26.5,3.5,36.9,13.6c3.4,3.3,6.4,7.1,8.9,11.1l0.3,0.5l0.4,0.5c2.8,3.6,5.5,8.4,8.5,13.4c5.1,8.8,10.8,18.7,18.9,26.6
		c8.3,8,18.6,13.6,27.7,18.6c4.9,2.7,9.5,5.2,13.1,7.7l0.5,0.3l0.5,0.3c4.2,2.4,8,5.3,11.5,8.7c10.5,10.2,15.6,22.9,14.8,36.7
		c-0.8,13.6-10.1,24.8-21.3,36.3c-11.2,11.5-22.1,21.1-35.6,22.3c-13.8,1.2-26.6-3.5-37.1-13.7c-3.2-3.1-6-6.5-8.3-10.2l-0.2-0.3
		c-1.8-2.8-3.3-5.8-4.5-8.8c-0.5-1.3-1-2.8-1.7-4.8c0-0.1-0.1-0.2-0.1-0.2c-0.3-0.8-0.5-1.6-0.8-2.4c-3.5-10.5-7.5-22.4-16.2-30.8
		c-8.6-8.4-20.4-11.9-30.9-15.1c-6-1.8-12.2-3.7-15.6-6l-0.4-0.4l-1.2-0.7c-3.7-2.2-7.2-4.9-10.4-8
		C-559.2,240.8-564.4,228.1-563.6,214.3z M-402.8,313.4c12.9-13.3,12.6-34.5-0.7-47.4c-13.3-12.9-34.5-12.6-47.4,0.7
		c-12.9,13.3-12.6,34.5,0.7,47.4C-436.9,327-415.7,326.7-402.8,313.4z M-444.7,272.7c9.6-9.9,25.4-10.1,35.2-0.5
		c9.9,9.6,10.1,25.4,0.5,35.2c-9.6,9.9-25.4,10.1-35.2,0.5C-454,298.3-454.3,282.5-444.7,272.7z M-477,241.3
		c12.9-13.3,12.6-34.5-0.7-47.4c-13.3-12.9-34.5-12.6-47.4,0.7s-12.6,34.5,0.7,47.4C-511.2,254.9-489.9,254.6-477,241.3z
		 M-518.9,200.6c9.6-9.9,25.4-10.1,35.2-0.5c9.9,9.6,10.1,25.4,0.5,35.2c-9.6,9.9-25.4,10.1-35.2,0.5
		C-528.3,226.2-528.5,210.4-518.9,200.6z"/>
</g>
<g>
	<path fill="#ECD4FC" d="M193.8,251.8c16.5,12.6,51.2,13.6,68.8,30.7c10.7,10.4,15.8,27.4,21.1,42.7c0,0,0,0.1,0,0.1
		c0.9,2.8,1.9,5.5,2.9,8.1c2.4,5.8,5.3,11.5,8.7,16.9l0,0c4.2,6.6,9.2,12.8,15.1,18.4c40.9,39.7,94,26.9,133.8-14
		s51-94.4,10.1-134.1c-6.4-6.3-13.5-11.5-20.9-15.8c-16.5-11.5-42-21.1-58.9-37.5c-17-16.6-26.9-41.8-39.4-58.1
		c-4.4-7.2-9.8-14.1-16.2-20.2C278.4,49.8,225,62,185.3,102.2c-0.2,0.2-0.5,0.5-0.7,0.7c-39.7,40.8-50.5,94.6-9.6,134.3
		C180.8,242.9,187.2,247.8,193.8,251.8L193.8,251.8z M165.3,169.4c1.2-20.4,14.7-37.5,31.4-54.7c0.2-0.2,0.4-0.4,0.6-0.6
		c16.7-16.9,33.4-30.8,53.7-32.5c20.6-1.8,39.7,5.3,55.3,20.5c5.2,5,9.7,10.7,13.4,16.7l0.5,0.8l0.6,0.7c4.2,5.4,8.3,12.6,12.7,20.1
		c7.6,13.1,16.2,28,28.4,39.9c12.4,12,27.9,20.4,41.5,27.9c7.4,4,14.3,7.8,19.6,11.5l0.7,0.5l0.7,0.4c6.2,3.5,12.1,7.9,17.3,13
		c15.7,15.3,23.4,34.3,22.2,55c-1.2,20.4-15.2,37.2-31.9,54.4c-16.7,17.2-33.1,31.7-53.5,33.5c-20.6,1.8-39.9-5.3-55.6-20.6
		c-4.7-4.6-8.9-9.7-12.4-15.2l-0.3-0.5c-2.6-4.2-4.9-8.6-6.8-13.3c-0.8-2-1.6-4.2-2.6-7.2c0-0.1-0.1-0.3-0.1-0.4
		c-0.4-1.2-0.8-2.4-1.2-3.6c-5.3-15.7-11.3-33.5-24.3-46.2c-12.9-12.5-30.7-17.9-46.3-22.7c-9-2.7-18.4-5.6-23.4-9l-0.6-0.6
		l-1.8-1.1c-5.6-3.4-10.8-7.4-15.6-12C171.8,209.1,164.1,190.1,165.3,169.4z M406.5,318.1c19.4-19.9,18.9-51.8-1-71.1
		c-19.9-19.4-51.8-18.9-71.1,1c-19.4,19.9-18.9,51.8,1,71.1C355.3,338.4,387.1,338,406.5,318.1z M343.6,257
		c14.4-14.8,38.1-15.1,52.9-0.8c14.8,14.4,15.1,38.1,0.8,52.9c-14.4,14.8-38.1,15.1-52.9,0.8C329.6,295.4,329.2,271.7,343.6,257z
		 M295.1,209.9c19.4-19.9,18.9-51.8-1-71.1c-19.9-19.4-51.8-18.9-71.1,1c-19.4,19.9-18.9,51.8,1,71.1
		C243.9,230.3,275.8,229.8,295.1,209.9z M232.2,148.8c14.4-14.8,38.1-15.1,52.9-0.8c14.8,14.4,15.1,38.1,0.8,52.9
		c-14.4,14.8-38.1,15.1-52.9,0.8C218.2,187.3,217.9,163.5,232.2,148.8z"/>
	<path fill-rule="evenodd" clip-rule="evenodd" fill="#ECD4FC" d="M0,315.7v79.9h29.9v-79.9c0-5.8,1.4-11,4.2-15.7
		c3-4.7,6.8-8.5,11.5-11.3c4.9-2.8,10.3-4.2,16.3-4.2c5.9,0,11.3,1.4,16,4.2c4.9,2.8,8.8,6.6,11.8,11.3c3,4.7,4.5,10,4.5,15.7v79.9
		H124v-79.9c0-5.8,1.4-11,4.2-15.7c3-4.7,6.9-8.5,11.8-11.3c4.9-2.8,10.3-4.2,16.3-4.2c6.1,0,11.5,1.4,16.3,4.2
		c4.7,2.8,8.5,6.6,11.3,11.3c3,4.7,4.5,10,4.5,15.7v79.9h29.9v-79.9c0-10.3-2.4-19.7-7.3-28.3c-4.9-8.7-12-15.6-21.2-20.7
		c-9.1-5.2-20.2-7.9-33.3-7.9c-6.3,0-12.4,0.8-18.3,2.4c-5.8,1.6-11.2,4.1-16.3,7.6c-4.9,3.3-9.1,7.5-12.6,12.6h-0.3
		c-3.5-5.1-7.8-9.3-12.8-12.6c-4.9-3.5-10.2-6-16-7.6c-5.8-1.6-11.8-2.4-18.1-2.4c-12.9,0-24,2.6-33.3,7.9
		c-9.3,5.1-16.3,12-21.2,20.7C2.4,295.9,0,305.4,0,315.7z"/>
</g>
</svg>
