<?xml version="1.0" encoding="UTF-8"?><svg id="Layer_1" xmlns="http://www.w3.org/2000/svg" viewBox="0 0 1024 512"><defs><style>.cls-1,.cls-2{fill:#6a00bd;}.cls-2{fill-rule:evenodd;}</style></defs><path class="cls-2" d="m62,311.82v53.29h19.92v-53.29c0-3.84.93-7.34,2.8-10.48,1.98-3.15,4.54-5.65,7.69-7.51,3.26-1.86,6.87-2.8,10.83-2.8s7.51.93,10.66,2.8c3.26,1.86,5.88,4.37,7.86,7.51,1.98,3.15,2.97,6.64,2.97,10.48v53.29h19.92v-53.29c0-3.84.93-7.34,2.8-10.48,1.98-3.15,4.6-5.65,7.86-7.51,3.26-1.86,6.87-2.8,10.83-2.8s7.69.93,10.83,2.8c3.15,1.86,5.65,4.37,7.51,7.51,1.98,3.15,2.97,6.64,2.97,10.48v53.29h19.92v-53.29c0-6.87-1.63-13.16-4.89-18.87-3.26-5.82-7.98-10.43-14.15-13.8-6.06-3.49-13.45-5.24-22.19-5.24-4.19,0-8.27.52-12.23,1.57-3.84,1.05-7.46,2.74-10.83,5.07-3.26,2.21-6.06,5.01-8.39,8.39h-.17c-2.33-3.38-5.18-6.17-8.56-8.39-3.26-2.33-6.81-4.02-10.66-5.07s-7.86-1.57-12.06-1.57c-8.62,0-16.02,1.75-22.19,5.24-6.17,3.38-10.89,7.98-14.15,13.8-3.26,5.71-4.89,12-4.89,18.87Zm189.54,50.32c6.41,3.38,13.92,5.07,22.54,5.07s16.08-1.69,22.37-5.07c6.41-3.49,11.36-8.27,14.85-14.33,3.61-6.06,5.42-12.87,5.42-20.44v-51.37h-20.09v51.2c0,4.54-1.05,8.56-3.15,12.06-1.98,3.38-4.72,6.06-8.21,8.04-3.38,1.86-7.11,2.8-11.18,2.8s-7.86-.93-11.36-2.8c-3.38-1.98-6.12-4.66-8.21-8.04-1.98-3.49-2.97-7.51-2.97-12.06v-51.2h-20.09v51.37c0,7.57,1.75,14.39,5.24,20.44,3.49,6.06,8.45,10.83,14.85,14.33Zm88.94-14.15v17.12h45.08c5.36,0,10.14-1.22,14.33-3.67,4.31-2.56,7.69-5.94,10.13-10.13,2.45-4.31,3.67-8.91,3.67-13.8,0-6.06-1.22-11.07-3.67-15.03-2.33-3.96-5.77-6.93-10.31-8.91-4.54-1.98-10.02-2.97-16.43-2.97h-16.95c-2.91,0-5.24-.87-6.99-2.62-1.75-1.75-2.62-3.79-2.62-6.12,0-2.45.87-4.49,2.62-6.12,1.75-1.75,3.96-2.62,6.64-2.62h39.49v-17.12h-41.41c-5.13,0-9.73,1.22-13.8,3.67-4.08,2.45-7.34,5.65-9.79,9.61-2.33,3.96-3.49,8.33-3.49,13.11,0,5.94,1.28,10.89,3.84,14.85,2.56,3.84,6.06,6.7,10.48,8.56,4.43,1.86,9.49,2.8,15.2,2.8h17.47c1.98,0,3.73.47,5.24,1.4,1.51.82,2.68,1.92,3.49,3.32.81,1.4,1.22,3.03,1.22,4.89,0,1.63-.47,3.2-1.4,4.72-.82,1.51-2.04,2.74-3.67,3.67-1.52.93-3.32,1.4-5.42,1.4h-42.99Zm111.88,11.53c7.57,3.73,16.36,5.59,26.39,5.59h23.94v-17.12h-23.94c-5.01,0-9.55-.76-13.63-2.27-4.08-1.63-7.46-3.96-10.13-6.99-2.68-3.15-4.37-7.05-5.07-11.71h63.26c.23-.82.41-1.98.52-3.49.11-1.51.17-2.85.17-4.02,0-8.5-1.52-16.19-4.54-23.07-2.91-6.87-7.46-12.35-13.63-16.43-6.18-4.08-14.04-6.12-23.59-6.12-8.51,0-16.02,1.98-22.54,5.94-6.53,3.96-11.65,9.44-15.38,16.43-3.73,6.99-5.59,15.09-5.59,24.29s2.1,16.48,6.29,23.24c4.19,6.64,10.02,11.88,17.47,15.73Zm41.41-46.13h-44.03c.35-2.8.99-5.53,1.92-8.21,1.05-2.8,2.5-5.24,4.37-7.34,1.86-2.21,4.13-3.96,6.81-5.24,2.68-1.4,5.77-2.1,9.26-2.1,3.03,0,5.71.47,8.04,1.4,2.33.82,4.31,1.98,5.94,3.49,1.75,1.4,3.15,3.09,4.19,5.07,1.16,1.98,1.98,4.08,2.45,6.29.58,2.21.93,4.43,1.05,6.64Zm58.96,48.75c6.4,3.38,13.92,5.07,22.54,5.07s16.08-1.69,22.37-5.07c6.4-3.49,11.36-8.27,14.85-14.33,3.61-6.06,5.42-12.87,5.42-20.44v-51.37h-20.09v51.2c0,4.54-1.05,8.56-3.15,12.06-1.98,3.38-4.72,6.06-8.21,8.04-3.38,1.86-7.11,2.8-11.18,2.8s-7.86-.93-11.36-2.8c-3.38-1.98-6.12-4.66-8.21-8.04-1.98-3.49-2.97-7.51-2.97-12.06v-51.2h-20.09v51.37c0,7.57,1.75,14.39,5.24,20.44,3.49,6.06,8.44,10.83,14.85,14.33Zm89.28-50.32v53.29h19.92v-53.29c0-3.84.93-7.34,2.8-10.48,1.98-3.15,4.54-5.65,7.69-7.51,3.26-1.86,6.88-2.8,10.83-2.8s7.51.93,10.66,2.8c3.26,1.86,5.88,4.37,7.86,7.51,1.98,3.15,2.97,6.64,2.97,10.48v53.29h19.92v-53.29c0-3.84.93-7.34,2.8-10.48,1.98-3.15,4.6-5.65,7.86-7.51,3.26-1.86,6.88-2.8,10.83-2.8s7.69.93,10.83,2.8c3.15,1.86,5.65,4.37,7.51,7.51,1.98,3.15,2.97,6.64,2.97,10.48v53.29h19.92v-53.29c0-6.87-1.63-13.16-4.89-18.87-3.26-5.82-7.98-10.43-14.15-13.8-6.06-3.49-13.45-5.24-22.19-5.24-4.19,0-8.27.52-12.23,1.57-3.84,1.05-7.45,2.74-10.83,5.07-3.26,2.21-6.06,5.01-8.39,8.39h-.17c-2.33-3.38-5.18-6.17-8.56-8.39-3.26-2.33-6.81-4.02-10.66-5.07-3.84-1.05-7.86-1.57-12.06-1.57-8.62,0-16.02,1.75-22.19,5.24-6.17,3.38-10.89,7.98-14.15,13.8-3.26,5.71-4.89,12-4.89,18.87Z"/><path class="cls-1" d="m771.24,269.24c11.02,8.4,34.1,9.08,45.85,20.49,7.16,6.96,10.56,18.28,14.04,28.48,0,.03.02.06.03.09.63,1.86,1.27,3.67,1.93,5.42,1.57,3.88,3.5,7.65,5.81,11.25h0c2.8,4.39,6.15,8.51,10.04,12.29,27.27,26.49,62.68,17.92,89.16-9.34s34.03-62.9,6.76-89.39c-4.29-4.17-8.99-7.67-13.96-10.5-10.97-7.69-27.98-14.04-39.28-25.02-11.36-11.04-17.93-27.86-26.24-38.7-2.95-4.83-6.55-9.37-10.8-13.5-27.01-26.25-62.6-18.09-89.05,8.72-.16.16-.32.32-.47.48-26.44,27.21-33.64,63.08-6.41,89.54,3.89,3.78,8.11,7.01,12.57,9.68h0Zm-19.02-54.91c.79-13.61,9.83-25,20.95-36.44.13-.14.27-.28.41-.41,11.13-11.28,22.26-20.54,35.81-21.69,13.73-1.17,26.48,3.55,36.86,13.64,3.45,3.35,6.45,7.1,8.92,11.15l.33.54.38.5c2.77,3.61,5.53,8.38,8.45,13.43,5.07,8.76,10.83,18.69,18.95,26.58,8.25,8.02,18.57,13.63,27.68,18.57,4.9,2.66,9.53,5.18,13.07,7.67l.46.32.5.28c4.16,2.37,8.04,5.29,11.53,8.68,10.49,10.19,15.6,22.87,14.77,36.66-.81,13.61-10.13,24.79-21.29,36.27-11.16,11.48-22.06,21.12-35.65,22.33-13.76,1.22-26.58-3.52-37.07-13.71-3.16-3.07-5.96-6.49-8.3-10.15l-.2-.32c-1.76-2.79-3.29-5.76-4.54-8.84-.51-1.34-1.04-2.83-1.71-4.8-.03-.09-.06-.18-.08-.25-.27-.8-.54-1.6-.81-2.4-3.53-10.48-7.54-22.36-16.2-30.77-8.61-8.36-20.45-11.95-30.89-15.11-6.02-1.82-12.24-3.71-15.57-5.98l-.39-.38-1.19-.71c-3.74-2.24-7.23-4.93-10.39-8-10.49-10.19-15.6-22.85-14.79-36.63Zm160.78,99.09c12.91-13.29,12.6-34.52-.68-47.43-13.29-12.91-34.52-12.6-47.43.68-12.91,13.29-12.6,34.52.68,47.43,13.29,12.91,34.52,12.6,47.43-.68Zm-41.93-40.74c9.58-9.86,25.38-10.08,35.23-.51,9.86,9.58,10.08,25.38.51,35.23s-25.38,10.08-35.23.51c-9.85-9.57-10.08-25.38-.51-35.23Zm-32.3-31.39c12.91-13.29,12.6-34.52-.68-47.43s-34.52-12.6-47.43.68c-12.91,13.29-12.6,34.52.68,47.43,13.29,12.91,34.52,12.6,47.43-.68Zm-41.93-40.74c9.58-9.86,25.38-10.08,35.23-.51,9.86,9.58,10.08,25.38.51,35.23s-25.38,10.08-35.23.51-10.08-25.38-.51-35.23Z"/></svg>