<?xml version="1.0" encoding="utf-8"?>
<!-- Generator: Adobe Illustrator 27.4.1, SVG Export Plug-In . SVG Version: 6.00 Build 0)  -->
<svg version="1.1" id="Layer_1" xmlns="http://www.w3.org/2000/svg" xmlns:xlink="http://www.w3.org/1999/xlink" x="0px" y="0px"
	 viewBox="0 0 230 34" style="enable-background:new 0 0 230 34;" xml:space="preserve">
<path style="fill:#6A00BD;" d="M123.1,26.1v-3.6h9.1c0.5,0,0.8-0.1,1.1-0.3c0.3-0.2,0.6-0.5,0.8-0.8c0.2-0.3,0.3-0.7,0.3-1
	c0-0.4-0.1-0.8-0.2-1c-0.2-0.3-0.4-0.5-0.8-0.7c-0.3-0.2-0.7-0.3-1.1-0.3h-3.7c-1.2,0-2.3-0.2-3.2-0.6s-1.7-1-2.2-1.8
	c-0.5-0.8-0.8-1.8-0.8-3.1c0-1,0.2-1.9,0.8-2.7c0.5-0.8,1.1-1.5,2.1-2c0.8-0.5,1.8-0.8,2.9-0.8h8.6v3.6h-8.3c-0.5,0-1,0.2-1.4,0.5
	c-0.4,0.4-0.5,0.8-0.5,1.3c0,0.5,0.2,0.9,0.5,1.3c0.4,0.4,0.8,0.5,1.4,0.5h3.6c1.4,0,2.5,0.2,3.4,0.6c1,0.4,1.7,1.1,2.2,1.9
	c0.5,0.8,0.8,1.9,0.8,3.1c0,1-0.2,2-0.8,2.9c-0.5,0.9-1.2,1.6-2.1,2.1c-0.9,0.5-1.9,0.8-3,0.8C132.6,26.1,123.1,26.1,123.1,26.1z
	 M146,7.9v2.7c0,0.2,0.2,0.5,0.5,0.5h8.8c0.2,0,0.3,0,0.5,0.1c0.4,0.1,0.7,0.2,0.9,0.5c0.4,0.3,0.5,0.8,0.5,1.3v1.9
	c0,0.2-0.2,0.5-0.5,0.5h-7.1c-1,0-1.9,0.2-2.7,0.6c-0.8,0.5-1.4,1.1-2,1.8c-0.5,0.8-0.8,1.8-0.8,2.9c0,1,0.2,2,0.8,2.8
	c0.5,0.8,1.1,1.5,2,2c0.8,0.5,1.8,0.8,2.7,0.8h6.2c3,0,5.3-2.4,5.3-5.3v-7.5c0-3.3-2.7-5.9-5.9-5.9h-8.8C146.2,7.4,146,7.6,146,7.9
	L146,7.9z M157.2,20.5c0,0.6-0.2,1.1-0.6,1.4c-0.2,0.2-0.5,0.4-0.8,0.5c-0.2,0.1-0.4,0.1-0.6,0.1h-4.5c-0.4,0-0.8-0.1-1.1-0.3
	s-0.6-0.5-0.8-0.8s-0.3-0.8-0.3-1.1c0-0.6,0.2-1.1,0.6-1.6c0.5-0.5,1-0.7,1.6-0.7h6.1c0.2,0,0.5,0.2,0.5,0.5L157.2,20.5L157.2,20.5z
	 M212.6,7.9v2.7c0,0.2,0.2,0.5,0.5,0.5h8.8c0.2,0,0.3,0,0.5,0.1c0.4,0.1,0.7,0.2,0.9,0.5c0.4,0.3,0.5,0.8,0.5,1.3v1.9
	c0,0.2-0.2,0.5-0.5,0.5h-7.1c-1,0-1.9,0.2-2.7,0.6c-0.8,0.5-1.4,1.1-2,1.8c-0.5,0.8-0.8,1.8-0.8,2.9c0,1,0.2,2,0.8,2.8
	c0.5,0.8,1.1,1.5,2,2c0.8,0.5,1.8,0.8,2.7,0.8h6.2c3,0,5.3-2.4,5.3-5.3v-7.5c0-3.3-2.7-5.9-5.9-5.9H213
	C212.8,7.4,212.6,7.6,212.6,7.9L212.6,7.9z M223.8,20.5c0,0.6-0.2,1.1-0.6,1.4c-0.2,0.2-0.5,0.4-0.8,0.5c-0.2,0.1-0.4,0.1-0.6,0.1
	h-4.5c-0.4,0-0.8-0.1-1.1-0.3c-0.3-0.2-0.6-0.5-0.8-0.8s-0.3-0.8-0.3-1.1c0-0.6,0.2-1.1,0.6-1.6c0.5-0.5,1-0.7,1.6-0.7h6.1
	c0.2,0,0.5,0.2,0.5,0.5L223.8,20.5L223.8,20.5z M174.8,26.6c-1,0-1.8-0.3-2.6-0.8c-0.8-0.5-1.3-1.3-1.7-2.1l-5.7-16.2h4.6l4.9,14.5
	c0.1,0.2,0.2,0.3,0.2,0.4c0.1,0.1,0.2,0.1,0.3,0.1c0.2,0,0.2,0,0.4-0.1c0.1-0.1,0.2-0.2,0.2-0.4l4.9-14.5h4.5L179,23.6
	c-0.3,0.9-0.8,1.6-1.7,2.1C176.7,26.3,175.8,26.6,174.8,26.6L174.8,26.6z M197,26.6c-1,0-1.8-0.3-2.6-0.8c-0.8-0.5-1.3-1.3-1.7-2.1
	L187,7.4h4.6l4.9,14.5c0.1,0.2,0.2,0.3,0.2,0.4c0.1,0.1,0.2,0.1,0.3,0.1c0.2,0,0.2,0,0.4-0.1s0.2-0.2,0.2-0.4l4.9-14.5h4.5
	l-5.8,16.2c-0.3,0.9-0.8,1.6-1.7,2.1C198.9,26.3,198,26.6,197,26.6L197,26.6z M12,7.1c1.4,0,2.7,0.2,3.9,0.7c1.1,0.5,2.1,1.1,2.9,2
	c0.8,0.8,1.4,1.9,1.8,3c0.5,1.1,0.6,2.5,0.6,3.9c0,1.8-0.4,3.4-1.1,4.7c-0.8,1.4-1.8,2.4-3,3.2c-1.3,0.8-2.8,1.1-4.5,1.1
	c-0.8,0-1.6-0.2-2.4-0.4s-1.4-0.6-2.1-1.1c-0.6-0.5-1.1-1-1.4-1.7l0,0V33h-4V16.6c0-2,0.4-3.7,1.1-5.1S5.7,9,7.1,8.2
	C8.5,7.5,10.1,7.1,12,7.1L12,7.1z M12,10.5c-1,0-1.9,0.2-2.7,0.8c-0.8,0.5-1.4,1.2-1.8,2.1c-0.5,0.9-0.7,1.9-0.7,3
	c0,1.1,0.2,2.1,0.7,3c0.5,0.9,1.1,1.6,1.8,2.1c0.8,0.5,1.7,0.8,2.7,0.8s1.9-0.2,2.7-0.8c0.8-0.5,1.4-1.2,1.8-2.1
	c0.5-0.9,0.7-1.9,0.7-3c0-1.1-0.2-2.2-0.7-3c-0.5-0.9-1.1-1.6-1.8-2.1C13.9,10.8,12.9,10.5,12,10.5z M25.6,8.3V11
	c0,0.2,0.2,0.5,0.5,0.5h8.8c0.2,0,0.3,0,0.5,0.1c0.4,0.1,0.7,0.2,0.9,0.5c0.4,0.3,0.5,0.8,0.5,1.3v1.8c0,0.2-0.2,0.5-0.5,0.5h-7.1
	c-1,0-1.9,0.2-2.7,0.6c-0.8,0.5-1.4,1.1-2,1.8c-0.5,0.8-0.8,1.8-0.8,2.9c0,1,0.2,2,0.8,2.8c0.5,0.8,1.1,1.5,2,2
	c0.8,0.5,1.8,0.8,2.7,0.8h6.2c2.9,0,5.3-2.4,5.3-5.3v-7.5c0-3.3-2.7-5.9-5.9-5.9H26C25.8,7.9,25.6,8.1,25.6,8.3L25.6,8.3z M36.7,21
	c0,0.6-0.2,1.1-0.6,1.4c-0.2,0.2-0.5,0.4-0.8,0.5c-0.2,0.1-0.4,0.1-0.6,0.1h-4.5c-0.4,0-0.8-0.1-1.1-0.3c-0.3-0.2-0.6-0.5-0.8-0.8
	s-0.3-0.8-0.3-1.1c0-0.6,0.2-1.1,0.6-1.6c0.5-0.5,1-0.7,1.6-0.7h6.1c0.2,0,0.5,0.2,0.5,0.5L36.7,21L36.7,21z M53.2,26.9
	c-1,0-1.8-0.3-2.6-0.8c-0.8-0.5-1.3-1.3-1.7-2.1L43.2,7.8h4.6l4.9,14.5c0.1,0.2,0.2,0.3,0.2,0.4c0.1,0.1,0.2,0.1,0.3,0.1
	c0.2,0,0.2,0,0.4-0.1c0.1-0.1,0.2-0.2,0.2-0.4l4.9-14.5h4.5l-5.6,16.2c-0.3,0.9-0.8,1.6-1.7,2.1C55.1,26.7,54.2,26.9,53.2,26.9
	L53.2,26.9z M65.4,26.5V1h4v25.5H65.4L65.4,26.5z M81.8,26.8c-1.9,0-3.5-0.5-5-1.3c-1.4-0.8-2.6-2-3.4-3.4s-1.3-3-1.3-4.8
	s0.5-3.4,1.3-4.8s2-2.6,3.4-3.4c1.4-0.8,3.1-1.3,5-1.3s3.5,0.5,5,1.3c1.4,0.8,2.6,2,3.4,3.4c0.8,1.4,1.3,3,1.3,4.8S91,20.6,90.2,22
	c-0.8,1.4-2,2.6-3.4,3.4C85.3,26.4,83.6,26.8,81.8,26.8z M81.8,23.3c1.1,0,2.1-0.2,2.9-0.8c0.8-0.5,1.4-1.2,1.9-2.1
	c0.5-0.9,0.7-1.9,0.7-3c0-1.1-0.2-2.1-0.7-3c-0.5-0.9-1.1-1.6-1.9-2.1s-1.8-0.8-2.9-0.8s-2.1,0.2-2.9,0.8c-0.8,0.5-1.4,1.2-1.9,2.1
	c-0.5,0.9-0.7,1.9-0.7,3c0,1.1,0.2,2.1,0.7,3c0.5,0.9,1.1,1.6,1.9,2.1C79.7,23.1,80.7,23.3,81.8,23.3L81.8,23.3z M94.3,26.1v-3.4
	h8.6c0.4,0,0.8-0.1,1.1-0.3c0.3-0.2,0.5-0.5,0.8-0.8c0.2-0.3,0.2-0.6,0.2-0.9c0-0.4-0.1-0.7-0.2-1c-0.2-0.3-0.4-0.5-0.7-0.7
	c-0.3-0.2-0.7-0.2-1.1-0.2h-3.5c-1.1,0-2.1-0.2-3-0.5s-1.6-0.9-2.1-1.8c-0.5-0.8-0.8-1.8-0.8-3c0-1,0.2-1.8,0.7-2.6
	c0.5-0.8,1.1-1.4,1.9-1.9c0.8-0.5,1.8-0.8,2.7-0.8h8.3v3.4h-7.8c-0.5,0-1,0.2-1.3,0.5c-0.4,0.3-0.5,0.8-0.5,1.2
	c0,0.5,0.2,0.8,0.5,1.2c0.4,0.4,0.8,0.5,1.4,0.5h3.4c1.3,0,2.4,0.2,3.3,0.6c0.9,0.4,1.6,1,2.1,1.8c0.5,0.8,0.7,1.8,0.7,3
	c0,1-0.2,1.9-0.8,2.7c-0.5,0.8-1.1,1.5-2,2.1c-0.8,0.5-1.8,0.8-2.9,0.8H94.3z"/>
</svg>
