<svg width="96" height="90" viewBox="0 0 96 90" fill="none" xmlns="http://www.w3.org/2000/svg">
<path d="M63.6245 45.8661C63.6245 60.296 52.2325 66.3931 38.4213 66.888H36.1344L29.9264 55.0224L38.8693 55.0992C45.5509 54.8347 50.0053 51.016 50.0053 45.2944C50.0053 38.6256 44.2069 35.7968 36.4245 35.7968L32.3968 35.8096L15.3173 89.8683H2.048L23.0144 23.7435H38.4213C53.5851 24.2384 63.6245 32.9424 63.6245 45.8661ZM47.1168 89.8683H51.1531C75.9168 89.8683 96 69.7808 96 45.0043C96 20.2277 75.9168 0.140278 51.1531 0.140278L0 0.131744L6.4768 12.6288L49.0368 12.4624C66.9995 12.4624 81.5616 27.0331 81.5616 45.0043C81.5616 62.9755 66.9995 77.5461 49.0368 77.5461H40.6528L47.1211 89.8683H47.1168Z" fill="#F5F3ED"/>
</svg>
