<?xml version="1.0" encoding="utf-8"?>
<!-- Generator: Adobe Illustrator 27.5.0, SVG Export Plug-In . SVG Version: 6.00 Build 0)  -->
<svg version="1.1" id="Layer_1" xmlns="http://www.w3.org/2000/svg" xmlns:xlink="http://www.w3.org/1999/xlink" x="0px" y="0px"
	 viewBox="0 0 125 100" style="enable-background:new 0 0 125 100;" xml:space="preserve">
<g>
	<g>
		<path style="fill:#F5F3ED;" d="M78.8,34.5c0,10.4-8.2,14.6-18,15.1h-1.5l-4.4-8.4h6.4c4.9-0.2,8-2.9,8-7.1c0-4.9-4.2-6.9-9.8-6.9
			h-2.9L44.2,65.9h-9.3l14.9-47.4h11.1C71.7,19,78.8,25.2,78.8,34.5L78.8,34.5z"/>
		<path style="fill:#F5F3ED;" d="M67.1,65.9h2.9c17.7,0,32.1-14.4,32.1-32.1S87.7,1.7,69.9,1.7H33.4l4.7,8.9l30.4-0.2
			c12.9,0,23.3,10.4,23.3,23.3S81.3,56.8,68.4,56.8h-6L67.1,65.9L67.1,65.9z"/>
	</g>
	<g>
		<path style="fill:#F5F3ED;" d="M103.4,98.3v-1.8h4c0.8,0,1.6-0.5,1.6-1.5v-2.3l0,0c-0.3,0.3-0.6,0.6-0.9,0.9
			c-0.3,0.3-0.6,0.4-1,0.6c-0.4,0.1-0.8,0.2-1.3,0.2c-0.9,0-1.6-0.2-2.3-0.6c-0.7-0.4-1.2-0.9-1.6-1.7s-0.6-1.5-0.6-2.5
			s0.2-1.7,0.6-2.4c0.4-0.7,0.9-1.3,1.6-1.7s1.6-0.6,2.6-0.6c1,0,1.8,0.2,2.6,0.6s1.3,1,1.7,1.8c0.4,0.7,0.6,1.6,0.6,2.6v5.1
			c0,1.9-1.5,3.5-3.5,3.5L103.4,98.3L103.4,98.3z M106.3,92.6c0.6,0,1-0.1,1.5-0.4c0.4-0.3,0.7-0.6,0.9-1.1c0.2-0.4,0.3-0.9,0.3-1.5
			c0-0.6-0.1-1.1-0.3-1.5c-0.2-0.5-0.5-0.8-0.9-1.1c-0.4-0.3-0.9-0.4-1.5-0.4s-1,0.1-1.5,0.4s-0.7,0.6-0.9,1.1
			c-0.2,0.4-0.3,1-0.3,1.5s0.1,1,0.3,1.5s0.5,0.8,0.9,1.1C105.3,92.4,105.7,92.6,106.3,92.6L106.3,92.6z M70.2,94.5
			c-0.7,0-1.4-0.1-2-0.3c-0.6-0.2-1.1-0.6-1.5-1c-0.4-0.5-0.7-1-0.9-1.6c-0.2-0.6-0.3-1.3-0.3-2c0-0.9,0.2-1.8,0.6-2.5
			s0.9-1.2,1.6-1.6c0.7-0.4,1.5-0.6,2.3-0.6c0.4,0,0.9,0.1,1.2,0.2s0.7,0.3,1.1,0.6s0.6,0.5,0.8,0.9l0,0V81H75v8.5
			c0,1-0.2,1.9-0.6,2.7s-1,1.3-1.7,1.7C72,94.3,71.2,94.5,70.2,94.5L70.2,94.5z M70.2,92.7c0.5,0,1-0.1,1.4-0.4
			c0.4-0.3,0.7-0.6,0.9-1.1c0.2-0.5,0.3-1,0.3-1.6s-0.1-1.2-0.3-1.6c-0.2-0.4-0.6-0.8-0.9-1.1c-0.4-0.3-0.9-0.4-1.4-0.4
			c-0.5,0-1,0.1-1.4,0.4c-0.4,0.3-0.7,0.6-0.9,1.1c-0.2,0.4-0.3,1-0.3,1.6s0.1,1.2,0.3,1.6c0.2,0.4,0.6,0.8,1,1.1
			C69.2,92.6,69.7,92.7,70.2,92.7L70.2,92.7z M82.2,94.3c-1,0-2-0.2-2.7-0.6c-0.8-0.4-1.4-0.9-1.8-1.6c-0.5-0.7-0.6-1.5-0.6-2.4
			c0-0.9,0.2-1.8,0.6-2.5c0.4-0.7,0.9-1.3,1.6-1.7c0.7-0.4,1.5-0.6,2.4-0.6c1,0,1.8,0.2,2.4,0.6c0.6,0.4,1.1,1,1.4,1.7
			c0.3,0.7,0.5,1.5,0.5,2.4c0,0.1,0,0.3,0,0.4s0,0.3,0,0.4h-6.6c0.1,0.5,0.3,0.9,0.5,1.2c0.3,0.3,0.6,0.6,1.1,0.7
			c0.4,0.2,0.9,0.3,1.4,0.3h2.5v1.8L82.2,94.3L82.2,94.3z M79.1,88.9h4.6c0-0.2,0-0.5-0.1-0.7c0-0.2-0.1-0.5-0.3-0.6
			c-0.1-0.2-0.3-0.4-0.4-0.5c-0.2-0.1-0.4-0.3-0.6-0.4c-0.3-0.1-0.5-0.1-0.8-0.1c-0.4,0-0.7,0.1-0.9,0.2c-0.3,0.1-0.5,0.3-0.7,0.6
			c-0.2,0.2-0.3,0.5-0.4,0.8C79.3,88.3,79.2,88.6,79.1,88.9L79.1,88.9z M87.6,94.3v-1.9h4.7c0.2,0,0.4,0,0.6-0.2
			c0.2-0.1,0.3-0.3,0.4-0.4c0.1-0.2,0.1-0.3,0.1-0.5c0-0.2,0-0.4-0.1-0.5c-0.1-0.2-0.2-0.3-0.4-0.4c-0.2-0.1-0.3-0.1-0.6-0.1h-1.9
			c-0.6,0-1.2-0.1-1.7-0.3c-0.5-0.2-0.9-0.5-1.2-0.9c-0.3-0.4-0.4-0.9-0.4-1.6c0-0.5,0.1-1,0.4-1.4c0.3-0.4,0.6-0.8,1.1-1
			c0.4-0.3,0.9-0.4,1.5-0.4h4.5v1.9h-4.3c-0.3,0-0.5,0.1-0.7,0.3c-0.2,0.2-0.3,0.4-0.3,0.7c0,0.3,0.1,0.5,0.3,0.7
			c0.2,0.2,0.4,0.3,0.8,0.3h1.8c0.7,0,1.3,0.1,1.8,0.3c0.5,0.2,0.9,0.6,1.1,1c0.3,0.4,0.4,1,0.4,1.6c0,0.5-0.1,1-0.4,1.5
			c-0.3,0.5-0.6,0.8-1.1,1.1c-0.5,0.3-1,0.4-1.6,0.4L87.6,94.3L87.6,94.3z M98.4,83.2c-0.4,0-0.7-0.1-1-0.4c-0.3-0.3-0.4-0.6-0.4-1
			s0.1-0.7,0.4-1c0.3-0.3,0.6-0.4,1-0.4s0.7,0.1,1,0.4c0.3,0.3,0.4,0.6,0.4,1s-0.1,0.7-0.4,1C99.1,83,98.8,83.2,98.4,83.2z
			 M97.3,94.3v-9.7h2.2v9.7H97.3z M113.6,94.3v-5.4c0-0.8,0.2-1.5,0.6-2.1c0.4-0.6,0.9-1.1,1.5-1.5s1.5-0.5,2.4-0.5s1.7,0.2,2.4,0.5
			c0.7,0.3,1.2,0.9,1.5,1.5c0.4,0.6,0.6,1.3,0.6,2.1v5.4h-2.1V89c0-0.5-0.1-0.9-0.3-1.2c-0.2-0.3-0.5-0.6-0.9-0.8
			c-0.3-0.2-0.8-0.3-1.2-0.3s-0.8,0.1-1.2,0.3c-0.3,0.2-0.6,0.5-0.9,0.8c-0.2,0.3-0.3,0.8-0.3,1.2v5.3H113.6L113.6,94.3z"/>
		<path style="fill:#F5F3ED;" d="M26.8,92.9l-2.9-8.4h2.4l2.5,7.5c0,0.1,0.1,0.3,0.3,0.3c0.2,0,0.3-0.1,0.3-0.3l2.5-7.5h2.3
			l-2.9,8.4c-0.5,1.2-1.4,1.5-2.3,1.5C28.2,94.4,27.3,93.8,26.8,92.9L26.8,92.9z M22.6,87.6c0-1.8-1.4-3-3.1-3h-4.8v1.9h4.8
			c0.6,0,1,0.4,1,1v0.9c0,0.1-0.1,0.3-0.3,0.3h-3.6c-1.7,0-2.9,1.5-2.9,2.7c0,1.8,1.4,2.9,2.9,2.9h3.1c1.5,0,2.7-1.2,2.7-2.7V87.6
			L22.6,87.6z M20.5,91.4c0,0.5-0.4,1-1.1,1h-2.4c-0.6,0-1.2-0.6-1.2-1.2c0-0.7,0.5-1.2,1.2-1.2h3.2c0.1,0,0.3,0.1,0.3,0.3V91.4
			L20.5,91.4z M7.5,84.3c0.8,0,1.5,0.1,2.1,0.4c0.6,0.3,1.1,0.6,1.5,1.1c0.4,0.4,0.8,1,1,1.6c0.3,0.6,0.3,1.3,0.3,2.1
			c0,1-0.2,1.8-0.6,2.5c-0.4,0.8-1,1.3-1.6,1.7c-0.7,0.4-1.5,0.6-2.4,0.6c-0.4,0-0.9-0.1-1.3-0.2c-0.4-0.1-0.8-0.3-1.1-0.6
			c-0.3-0.3-0.6-0.6-0.8-0.9l0,0v5.7H2.5v-8.8c0-1.1,0.2-2,0.6-2.7s1-1.3,1.8-1.8C5.6,84.5,6.5,84.3,7.5,84.3L7.5,84.3L7.5,84.3z
			 M7.5,86.1c-0.6,0-1,0.1-1.5,0.4c-0.4,0.3-0.8,0.6-1,1.1c-0.3,0.5-0.4,1-0.4,1.6c0,0.6,0.1,1.1,0.4,1.6c0.3,0.5,0.6,0.9,1,1.1
			c0.4,0.3,0.9,0.4,1.5,0.4s1-0.1,1.5-0.4c0.4-0.3,0.8-0.6,1-1.1c0.3-0.5,0.4-1,0.4-1.6c0-0.6-0.1-1.2-0.4-1.6
			c-0.3-0.5-0.6-0.9-1-1.1C8.5,86.3,8,86.1,7.5,86.1z M35.4,94.2V81h2.1v13.2H35.4z M43.9,94.4c-1,0-1.8-0.3-2.6-0.7
			c-0.7-0.4-1.4-1-1.8-1.8c-0.4-0.7-0.7-1.5-0.7-2.5s0.3-1.8,0.7-2.5s1-1.3,1.8-1.8c0.7-0.4,1.6-0.7,2.6-0.7c1,0,1.8,0.3,2.6,0.7
			c0.7,0.4,1.4,1,1.8,1.8s0.7,1.5,0.7,2.5s-0.3,1.7-0.7,2.4c-0.4,0.7-1,1.3-1.8,1.8C45.7,94.1,44.9,94.4,43.9,94.4L43.9,94.4z
			 M43.9,92.6c0.6,0,1.1-0.1,1.5-0.4c0.4-0.3,0.7-0.6,1-1.1s0.3-1,0.3-1.5s-0.1-1.1-0.3-1.5c-0.3-0.4-0.6-0.8-1-1.1
			c-0.4-0.3-0.9-0.4-1.5-0.4c-0.6,0-1.1,0.1-1.5,0.4c-0.4,0.3-0.7,0.6-1,1.1c-0.3,0.5-0.3,1-0.3,1.5s0.1,1.1,0.3,1.5
			c0.3,0.4,0.6,0.8,1,1.1C42.8,92.4,43.3,92.6,43.9,92.6L43.9,92.6z M51,94.3v-1.8h4.7c0.2,0,0.4,0,0.6-0.2c0.2-0.1,0.3-0.3,0.4-0.4
			c0.1-0.2,0.1-0.3,0.1-0.5c0-0.2,0-0.4-0.1-0.6c-0.1-0.2-0.2-0.3-0.4-0.4c-0.2-0.1-0.4-0.1-0.6-0.1h-1.9c-0.6,0-1.2-0.1-1.6-0.3
			c-0.5-0.2-0.9-0.5-1.2-1c-0.3-0.4-0.4-1-0.4-1.6c0-0.6,0.1-1,0.4-1.4c0.3-0.4,0.6-0.8,1-1c0.4-0.3,1-0.4,1.5-0.4h4.5v1.8h-4.2
			c-0.3,0-0.6,0.1-0.7,0.3c-0.2,0.2-0.3,0.4-0.3,0.6c0,0.3,0.1,0.4,0.3,0.6c0.2,0.2,0.4,0.3,0.8,0.3h1.8c0.7,0,1.3,0.1,1.8,0.3
			c0.5,0.3,0.9,0.6,1.2,1s0.4,1,0.4,1.6c0,0.6-0.1,1-0.4,1.5c-0.3,0.4-0.6,0.8-1.1,1.2c-0.4,0.3-1,0.4-1.6,0.4L51,94.3L51,94.3
			L51,94.3z"/>
	</g>
</g>
</svg>
