<?xml version="1.0" encoding="UTF-8"?>
<svg id="Layer_1" data-name="Layer 1" xmlns="http://www.w3.org/2000/svg" viewBox="0 0 320 280">
  <defs>
    <style>
      .cls-1 {
        fill: #1c3e68;
      }

      .cls-2 {
        fill: #6a00bd;
      }
    </style>
  </defs>
  <g>
    <path class="cls-2" d="m198.14,108.49c0,24.31-19.14,34.14-41.9,35.17h-3.62l-10.34-19.66h15c11.38-.52,18.62-6.72,18.62-16.55,0-11.38-9.83-16.03-22.76-16.03h-6.72s-28.97,90.52-28.97,90.52h-21.72l34.66-110.69h25.86c25.34,1.03,41.9,15.52,41.9,37.24Z"/>
    <path class="cls-1" d="m170.73,181.94h6.72c41.38,0,75-33.62,75-75S218.83,31.94,177.45,31.94h-85.34l10.86,20.69,70.86-.52c30,0,54.31,24.31,54.31,54.31s-24.31,54.31-54.31,54.31h-13.97l10.86,21.21Z"/>
  </g>
  <g>
    <path class="cls-1" d="m255.58,257.56v-4.16h9.38c1.82,0,3.81-1.18,3.81-3.55v-5.3h-.04c-.62.76-1.29,1.42-1.99,1.97-.71.55-1.51.98-2.4,1.27-.89.3-1.87.45-2.95.45-1.98,0-3.75-.47-5.3-1.4-1.56-.93-2.78-2.24-3.67-3.93-.89-1.68-1.34-3.61-1.34-5.79s.45-4.02,1.34-5.71c.89-1.68,2.17-3.02,3.84-4.01s3.71-1.49,6.11-1.49,4.28.48,5.96,1.44c1.68.96,2.99,2.31,3.92,4.05.93,1.74,1.4,3.77,1.4,6.09v11.94c0,4.42-3.64,8.1-8.1,8.1h-9.97Zm6.74-13.47c1.3,0,2.43-.3,3.37-.91.95-.61,1.68-1.43,2.21-2.46.52-1.03.78-2.19.78-3.46,0-1.36-.25-2.57-.76-3.65-.51-1.07-1.24-1.93-2.18-2.57-.95-.64-2.09-.95-3.42-.95s-2.43.32-3.37.95c-.95.64-1.68,1.48-2.19,2.54s-.76,2.26-.76,3.59.25,2.43.76,3.48,1.24,1.88,2.19,2.5c.95.62,2.07.93,3.37.93Zm-84.21,4.5c-1.72,0-3.29-.28-4.69-.83s-2.59-1.35-3.56-2.4c-.98-1.05-1.73-2.28-2.25-3.71-.52-1.43-.78-3-.78-4.73,0-2.21.45-4.13,1.34-5.77.89-1.64,2.13-2.92,3.71-3.84,1.58-.92,3.39-1.38,5.43-1.38,1.02,0,1.98.16,2.88.47.91.31,1.73.75,2.46,1.32s1.33,1.23,1.78,1.99h.04v-12.6h4.88v19.9c0,2.38-.47,4.43-1.42,6.17-.95,1.74-2.26,3.08-3.95,4.01-1.68.93-3.64,1.4-5.88,1.4Zm0-4.16c1.24,0,2.34-.3,3.29-.91.95-.61,1.69-1.45,2.23-2.52s.81-2.32.81-3.73-.27-2.66-.81-3.73-1.28-1.92-2.23-2.52c-.95-.61-2.06-.91-3.33-.91s-2.3.31-3.27.93c-.96.62-1.71,1.47-2.25,2.54s-.81,2.31-.81,3.69.27,2.66.81,3.73,1.29,1.92,2.27,2.52c.98.61,2.07.91,3.29.91Zm27.87,3.65c-2.43,0-4.56-.46-6.38-1.38-1.82-.92-3.25-2.19-4.26-3.82s-1.53-3.5-1.53-5.62c0-2.23.45-4.2,1.36-5.9.9-1.7,2.15-3.03,3.73-3.99,1.58-.96,3.41-1.44,5.47-1.44,2.32,0,4.23.49,5.73,1.48,1.5.99,2.61,2.32,3.33,3.99.72,1.67,1.08,3.54,1.08,5.6,0,.28-.02.61-.04.98-.03.37-.07.65-.13.85h-15.36c.17,1.13.58,2.07,1.23,2.82.65.75,1.47,1.32,2.46,1.7.99.38,2.09.57,3.31.57h5.81v4.16h-5.81Zm-7.04-12.56h10.69c-.03-.54-.11-1.07-.23-1.61-.13-.54-.33-1.05-.59-1.53-.27-.48-.61-.9-1.02-1.25-.41-.35-.9-.64-1.46-.85-.57-.21-1.22-.32-1.95-.32-.85,0-1.6.16-2.25.49-.65.33-1.2.75-1.65,1.27-.45.52-.8,1.12-1.04,1.78-.24.67-.4,1.34-.49,2.02Zm19.62,12.56v-4.36h10.93c.53,0,1-.12,1.4-.36.4-.24.71-.55.93-.93.22-.38.33-.78.33-1.2,0-.47-.1-.89-.31-1.25-.21-.35-.5-.64-.89-.87-.39-.22-.83-.33-1.33-.33h-4.44c-1.45,0-2.74-.24-3.87-.71-1.13-.47-2.02-1.21-2.67-2.2-.65-.99-.98-2.24-.98-3.76,0-1.22.3-2.33.91-3.33s1.43-1.82,2.47-2.45c1.04-.62,2.21-.93,3.51-.93h10.53v4.36h-10.04c-.68,0-1.24.22-1.69.64-.44.43-.67.95-.67,1.58s.22,1.11.67,1.56c.45.44,1.04.67,1.78.67h4.31c1.63,0,3.02.25,4.18.76,1.16.5,2.04,1.26,2.65,2.27.61,1.01.91,2.28.91,3.82,0,1.25-.31,2.41-.93,3.49s-1.47,1.94-2.56,2.58c-1.08.64-2.3.96-3.67.96h-11.47Zm25.24-25.85c-.9,0-1.68-.33-2.34-.99-.66-.66-.99-1.44-.99-2.34s.33-1.68.99-2.34,1.44-.99,2.34-.99,1.72.33,2.36.99c.65.66.97,1.44.97,2.34s-.32,1.68-.97,2.34c-.65.66-1.43.99-2.36.99Zm-2.53,25.85v-22.67h5.11v22.67h-5.11Zm38.06,0v-12.47c0-1.87.42-3.53,1.27-4.98.85-1.46,2.05-2.6,3.61-3.44,1.56-.83,3.38-1.25,5.47-1.25s3.91.42,5.45,1.25c1.54.83,2.74,1.98,3.59,3.44.85,1.46,1.27,3.12,1.27,4.98v12.47h-4.84v-12.43c0-1.1-.25-2.07-.76-2.91-.51-.83-1.18-1.48-2.01-1.95-.84-.47-1.75-.7-2.74-.7s-1.86.23-2.69.7c-.83.47-1.5,1.12-1.99,1.95-.5.83-.74,1.8-.74,2.91v12.43h-4.88Z"/>
    <path class="cls-2" d="m76.85,244.8l-6.87-19.53h5.55l5.91,17.48c.11.32.28.6.66.6.36,0,.56-.31.66-.6l5.91-17.48h5.43l-6.75,19.53c-1.1,2.67-3.15,3.5-5.31,3.5s-4.21-1.21-5.18-3.5Zm-9.98-12.26c0-4.18-3.27-7.15-7.15-7.15h-11.15v4.36h11.27c1.44,0,2.3.92,2.3,2.3v2.18c0,.24-.24.61-.61.61h-8.3c-4.05,0-6.67,3.46-6.67,6.42,0,4.23,3.15,6.79,6.67,6.79h7.21c3.52,0,6.42-2.91,6.42-6.42v-9.09Zm-4.73,8.73c0,1.1-.93,2.42-2.55,2.42h-5.45c-1.53,0-2.67-1.36-2.67-2.67,0-1.57,1.19-2.79,2.67-2.79h7.39c.24,0,.61.24.61.61v2.42Zm-30.47-16.48c1.76,0,3.39.25,4.9.88,1.38.63,2.64,1.38,3.64,2.51,1,1,1.76,2.39,2.26,3.77.63,1.38.75,3.14.75,4.9,0,2.26-.5,4.27-1.38,5.9-1,1.76-2.26,3.01-3.77,4.02-1.63,1-3.52,1.38-5.65,1.38-1,0-2.01-.25-3.01-.5s-1.76-.75-2.64-1.38c-.75-.63-1.38-1.26-1.76-2.14h0v13.19h-5.02v-20.6c0-2.51.5-4.65,1.38-6.41s2.39-3.14,4.15-4.15c1.76-.88,3.77-1.38,6.16-1.38h0Zm0,4.27c-1.26,0-2.39.25-3.39,1-1,.63-1.76,1.51-2.26,2.64-.63,1.13-.88,2.39-.88,3.77s.25,2.64.88,3.77,1.38,2.01,2.26,2.64c1,.63,2.14,1,3.39,1s2.39-.25,3.39-1c1-.63,1.76-1.51,2.26-2.64.63-1.13.88-2.39.88-3.77s-.25-2.76-.88-3.77c-.63-1.13-1.38-2.01-2.26-2.64-1-.63-2.26-1-3.39-1Zm65.13,18.88v-30.91h4.85v30.91h-4.85Zm19.88.36c-2.3,0-4.24-.61-6.06-1.58-1.7-.97-3.15-2.42-4.12-4.12-.97-1.7-1.58-3.64-1.58-5.82s.61-4.12,1.58-5.82c.97-1.7,2.42-3.15,4.12-4.12,1.7-.97,3.76-1.58,6.06-1.58s4.24.61,6.06,1.58c1.7.97,3.15,2.42,4.12,4.12s1.58,3.64,1.58,5.82-.61,4-1.58,5.7-2.42,3.15-4.12,4.12c-1.82,1.21-3.88,1.7-6.06,1.7Zm0-4.24c1.33,0,2.55-.24,3.52-.97.97-.61,1.7-1.45,2.3-2.55s.85-2.3.85-3.64-.24-2.55-.85-3.64-1.33-1.94-2.3-2.55-2.18-.97-3.52-.97-2.55.24-3.52.97c-.97.61-1.7,1.45-2.3,2.55-.61,1.09-.85,2.3-.85,3.64s.24,2.55.85,3.64,1.33,1.94,2.3,2.55c.97.73,2.18.97,3.52.97h0Zm16.4,4.01v-4.31h10.89c.51,0,1.01-.13,1.39-.38.38-.25.63-.63,1.01-1.01.25-.38.25-.76.25-1.14,0-.51-.13-.89-.25-1.27-.25-.38-.51-.63-.89-.89-.38-.25-.89-.25-1.39-.25h-4.43c-1.39,0-2.66-.25-3.8-.63s-2.03-1.14-2.66-2.28c-.63-1.01-1.01-2.28-1.01-3.8,0-1.27.25-2.28.89-3.29s1.39-1.77,2.41-2.41,2.28-1.01,3.42-1.01h10.51v4.31h-9.88c-.63,0-1.27.25-1.65.63-.51.38-.63,1.01-.63,1.52,0,.63.25,1.01.63,1.52.51.51,1.01.63,1.77.63h4.31c1.65,0,3.04.25,4.18.76,1.14.51,2.03,1.27,2.66,2.28s.89,2.28.89,3.8c0,1.27-.25,2.41-1.01,3.42-.63,1.01-1.39,1.9-2.53,2.66-1.01.63-2.28,1.01-3.67,1.01h-11.4v.13Z"/>
  </g>
</svg>