<?xml version="1.0" encoding="UTF-8"?>
<svg id="Layer_1" data-name="Layer 1" xmlns="http://www.w3.org/2000/svg" viewBox="0 0 350 95">
  <defs>
    <style>
      .cls-1 {
        fill: #1c3e68;
      }

      .cls-2 {
        fill: #6a00bd;
      }
    </style>
  </defs>
  <g>
    <path class="cls-2" d="m62.99,45.27c0,14.14-11.13,19.86-24.37,20.46h-2.11l-6.02-11.43h8.73c6.62-.3,10.83-3.91,10.83-9.63,0-6.62-5.72-9.33-13.24-9.33h-3.91s-16.85,52.65-16.85,52.65H3.42L23.57,23.61h15.04c14.74.6,24.37,9.03,24.37,21.66Z"/>
    <path class="cls-1" d="m47.04,88h3.91c24.07,0,43.63-19.56,43.63-43.62S75.02.75,50.95.75H1.31l6.32,12.03,41.22-.3c17.45,0,31.59,14.14,31.59,31.59s-14.14,31.59-31.59,31.59h-8.12l6.32,12.34Z"/>
  </g>
  <g>
    <path class="cls-1" d="m294.95,94.25v-5.03h11.35c2.2,0,4.61-1.43,4.61-4.3v-6.41h-.05c-.75.92-1.56,1.72-2.41,2.39-.86.67-1.82,1.18-2.9,1.54-1.08.36-2.27.54-3.57.54-2.4,0-4.53-.56-6.42-1.69-1.88-1.13-3.36-2.71-4.44-4.75-1.08-2.03-1.62-4.37-1.62-7.01s.54-4.87,1.62-6.9c1.08-2.04,2.62-3.65,4.64-4.85s4.48-1.8,7.39-1.8,5.18.58,7.21,1.75c2.03,1.16,3.62,2.8,4.75,4.9,1.13,2.1,1.69,4.56,1.69,7.36v14.45c0,5.35-4.41,9.8-9.8,9.8h-12.06Zm8.16-16.3c1.57,0,2.93-.37,4.08-1.1,1.15-.73,2.03-1.73,2.67-2.98.63-1.25.95-2.64.95-4.18,0-1.64-.31-3.11-.92-4.41-.62-1.3-1.5-2.33-2.64-3.1-1.15-.77-2.52-1.15-4.13-1.15s-2.93.38-4.08,1.15c-1.15.77-2.03,1.8-2.64,3.08s-.92,2.73-.92,4.34.31,2.94.92,4.21,1.5,2.28,2.64,3.03c1.15.75,2.51,1.13,4.08,1.13Zm-101.88,5.44c-2.09,0-3.98-.33-5.67-1-1.69-.67-3.13-1.63-4.31-2.9-1.18-1.26-2.09-2.76-2.72-4.49-.63-1.73-.95-3.63-.95-5.72,0-2.67.54-4.99,1.62-6.98,1.08-1.98,2.57-3.53,4.49-4.64,1.92-1.11,4.11-1.67,6.57-1.67,1.23,0,2.39.19,3.49.56,1.1.38,2.09.91,2.98,1.59s1.61,1.49,2.16,2.41h.05v-15.24h5.9v24.07c0,2.87-.57,5.36-1.72,7.47-1.15,2.11-2.74,3.72-4.77,4.85-2.04,1.13-4.41,1.69-7.11,1.69Zm0-5.03c1.51,0,2.83-.37,3.98-1.1,1.15-.73,2.04-1.75,2.69-3.05s.98-2.81.98-4.52-.33-3.22-.98-4.52c-.65-1.3-1.55-2.32-2.69-3.05-1.15-.74-2.49-1.1-4.03-1.1s-2.79.38-3.95,1.13c-1.16.75-2.07,1.78-2.72,3.08s-.98,2.79-.98,4.47.33,3.22.98,4.52,1.57,2.32,2.75,3.05c1.18.74,2.51,1.1,3.98,1.1Zm33.72,4.41c-2.94,0-5.52-.56-7.72-1.67-2.21-1.11-3.93-2.65-5.16-4.62-1.23-1.97-1.85-4.23-1.85-6.8,0-2.7.55-5.08,1.64-7.13,1.09-2.05,2.6-3.66,4.52-4.82,1.91-1.16,4.12-1.74,6.62-1.74,2.81,0,5.12.6,6.93,1.8,1.81,1.2,3.16,2.81,4.03,4.82.87,2.02,1.31,4.28,1.31,6.77,0,.34-.02.74-.05,1.18-.03.45-.09.79-.15,1.03h-18.58c.21,1.37.7,2.51,1.49,3.41.79.91,1.78,1.59,2.98,2.05,1.2.46,2.53.69,4,.69h7.03v5.03h-7.03Zm-8.52-15.19h12.93c-.03-.65-.13-1.3-.28-1.95-.15-.65-.39-1.27-.72-1.85-.33-.58-.74-1.09-1.23-1.51-.5-.43-1.09-.77-1.77-1.03-.69-.26-1.47-.38-2.36-.38-1.03,0-1.93.2-2.72.59-.79.39-1.45.91-2,1.54-.55.63-.97,1.35-1.26,2.16-.29.8-.49,1.62-.59,2.44Zm23.74,15.19v-5.27h13.23c.65,0,1.21-.14,1.69-.43.48-.29.86-.66,1.13-1.13.27-.47.4-.95.4-1.45,0-.57-.13-1.08-.38-1.51-.25-.43-.61-.78-1.08-1.05-.47-.27-1-.4-1.61-.4h-5.38c-1.76,0-3.32-.29-4.68-.86-1.36-.57-2.44-1.46-3.23-2.66-.79-1.2-1.18-2.72-1.18-4.54,0-1.47.37-2.81,1.1-4.03s1.73-2.21,2.99-2.96c1.25-.75,2.67-1.13,4.25-1.13h12.74v5.27h-12.15c-.83,0-1.5.26-2.04.78-.54.52-.81,1.16-.81,1.91s.27,1.34.81,1.88c.54.54,1.25.81,2.15.81h5.21c1.97,0,3.66.3,5.05.91,1.4.61,2.46,1.52,3.2,2.74.73,1.22,1.1,2.76,1.1,4.62,0,1.51-.38,2.91-1.13,4.22s-1.78,2.35-3.09,3.12c-1.31.77-2.79,1.16-4.44,1.16h-13.87Zm30.54-31.27c-1.09,0-2.03-.4-2.83-1.2-.8-.8-1.2-1.74-1.2-2.83s.4-2.03,1.2-2.83c.8-.8,1.74-1.2,2.83-1.2s2.08.4,2.86,1.2c.78.8,1.17,1.74,1.17,2.83s-.39,2.03-1.17,2.83c-.78.8-1.73,1.2-2.86,1.2Zm-3.06,31.27v-27.42h6.18v27.42h-6.18Zm46.05,0v-15.09c0-2.26.51-4.27,1.54-6.03,1.03-1.76,2.48-3.15,4.36-4.16,1.88-1.01,4.09-1.51,6.62-1.51s4.73.51,6.59,1.51c1.86,1.01,3.31,2.4,4.34,4.16,1.03,1.76,1.54,3.77,1.54,6.03v15.09h-5.85v-15.04c0-1.33-.31-2.51-.92-3.52-.62-1.01-1.43-1.8-2.44-2.36-1.01-.56-2.11-.85-3.31-.85s-2.25.28-3.26.85c-1.01.57-1.81,1.35-2.41,2.36-.6,1.01-.9,2.18-.9,3.52v15.04h-5.9Z"/>
    <path class="cls-2" d="m184.87,34.35l-8.31-23.63h6.71l7.15,21.15c.14.38.33.73.8.73.43,0,.68-.37.8-.73l7.15-21.15h6.56l-8.17,23.63c-1.33,3.23-3.82,4.23-6.42,4.23s-5.09-1.46-6.27-4.23Zm-12.07-14.83c0-5.05-3.96-8.65-8.65-8.65h-13.49v5.28h13.64c1.75,0,2.79,1.12,2.79,2.79v2.64c0,.29-.29.73-.73.73h-10.04c-4.9,0-8.07,4.19-8.07,7.77,0,5.12,3.8,8.21,8.07,8.21h8.73c4.25,0,7.77-3.52,7.77-7.77v-11Zm-5.72,10.56c0,1.33-1.12,2.93-3.08,2.93h-6.6c-1.85,0-3.23-1.65-3.23-3.23,0-1.9,1.44-3.37,3.23-3.37h8.94c.29,0,.73.29.73.73v2.93Zm-36.86-19.94c2.13,0,4.1.3,5.93,1.06,1.67.76,3.19,1.67,4.41,3.04,1.22,1.22,2.13,2.89,2.74,4.56.76,1.67.91,3.8.91,5.93,0,2.74-.61,5.17-1.67,7.14-1.22,2.13-2.74,3.65-4.56,4.86-1.98,1.22-4.26,1.67-6.84,1.67-1.22,0-2.43-.3-3.65-.61s-2.13-.91-3.19-1.67c-.91-.76-1.67-1.52-2.13-2.58h0v15.96h-6.08v-24.92c0-3.04.61-5.62,1.67-7.75,1.06-2.13,2.89-3.8,5.01-5.01,2.13-1.06,4.56-1.67,7.45-1.67h0Zm0,5.17c-1.52,0-2.89.3-4.1,1.22-1.22.76-2.13,1.82-2.74,3.19-.76,1.37-1.06,2.89-1.06,4.56s.3,3.19,1.06,4.56,1.67,2.43,2.74,3.19c1.22.76,2.58,1.22,4.1,1.22s2.89-.3,4.1-1.22c1.22-.76,2.13-1.82,2.74-3.19.76-1.37,1.06-2.89,1.06-4.56s-.3-3.34-1.06-4.56c-.76-1.37-1.67-2.43-2.74-3.19-1.22-.76-2.74-1.22-4.1-1.22Zm78.8,22.84V.75h5.87v37.39h-5.87Zm24.05.44c-2.79,0-5.13-.73-7.33-1.91-2.05-1.17-3.81-2.93-4.99-4.99-1.17-2.05-1.91-4.4-1.91-7.04s.73-4.99,1.91-7.04c1.17-2.05,2.93-3.81,4.99-4.99,2.05-1.17,4.55-1.91,7.33-1.91s5.13.73,7.33,1.91c2.05,1.17,3.81,2.93,4.99,4.99s1.91,4.4,1.91,7.04-.73,4.84-1.91,6.89-2.93,3.81-4.99,4.99c-2.2,1.47-4.69,2.05-7.33,2.05Zm0-5.13c1.61,0,3.08-.29,4.25-1.17,1.17-.73,2.05-1.76,2.79-3.08s1.03-2.79,1.03-4.4-.29-3.08-1.03-4.4c-.73-1.32-1.61-2.35-2.79-3.08-1.17-.73-2.64-1.17-4.25-1.17s-3.08.29-4.25,1.17c-1.17.73-2.05,1.76-2.79,3.08-.73,1.32-1.03,2.79-1.03,4.4s.29,3.08,1.03,4.4,1.61,2.35,2.79,3.08c1.17.88,2.64,1.17,4.25,1.17h0Zm19.84,4.86v-5.21h13.17c.61,0,1.23-.15,1.69-.46.46-.31.77-.77,1.23-1.23.31-.46.31-.92.31-1.38,0-.61-.15-1.07-.31-1.53-.31-.46-.61-.77-1.07-1.07-.46-.31-1.07-.31-1.69-.31h-5.36c-1.69,0-3.22-.31-4.6-.77s-2.45-1.38-3.22-2.76c-.77-1.23-1.23-2.76-1.23-4.6,0-1.53.31-2.76,1.07-3.98s1.69-2.14,2.91-2.91,2.76-1.23,4.14-1.23h12.71v5.21h-11.95c-.77,0-1.53.31-1.99.77-.61.46-.77,1.23-.77,1.84,0,.77.31,1.23.77,1.84.61.61,1.23.77,2.14.77h5.21c1.99,0,3.68.31,5.06.92,1.38.61,2.45,1.53,3.22,2.76s1.07,2.76,1.07,4.6c0,1.53-.31,2.91-1.23,4.14-.77,1.23-1.69,2.3-3.06,3.22-1.23.77-2.76,1.23-4.44,1.23h-13.79v.15Z"/>
  </g>
</svg>