<?xml version="1.0" encoding="UTF-8"?>
<svg id="Layer_1" data-name="Layer 1" xmlns="http://www.w3.org/2000/svg" viewBox="0 0 525 90">
  <defs>
    <style>
      .cls-1 {
        fill: #1c3e68;
      }

      .cls-2 {
        fill: #6a00bd;
      }
    </style>
  </defs>
  <g>
    <path class="cls-2" d="m62.18,45.9c0,14.1-11.1,19.8-24.3,20.4h-2.1l-6-11.4h8.7c6.6-.3,10.8-3.9,10.8-9.6,0-6.6-5.7-9.3-13.2-9.3h-3.9s-16.8,52.5-16.8,52.5H2.78L22.88,24.3h15c14.7.6,24.3,9,24.3,21.6Z"/>
    <path class="cls-1" d="m46.28,88.5h3.9c24,0,43.5-19.5,43.5-43.5S74.18,1.5,50.18,1.5H.68l6.3,12,41.1-.3c17.4,0,31.5,14.1,31.5,31.5s-14.1,31.5-31.5,31.5h-8.1l6.3,12.3Z"/>
  </g>
  <path class="cls-1" d="m457.7,88.5v-6.24h14.07c2.72,0,5.72-1.77,5.72-5.33v-7.95h-.06c-.93,1.15-1.93,2.13-2.99,2.96-1.06.83-2.26,1.46-3.6,1.91-1.34.45-2.81.67-4.42.67-2.97,0-5.62-.7-7.95-2.1-2.33-1.4-4.17-3.36-5.5-5.89-1.34-2.52-2-5.42-2-8.69s.67-6.04,2-8.56c1.34-2.52,3.25-4.53,5.76-6.01s5.56-2.23,9.16-2.23,6.42.72,8.94,2.16c2.52,1.44,4.49,3.47,5.89,6.08,1.4,2.61,2.1,5.65,2.1,9.13v17.92c0,6.64-5.46,12.16-12.15,12.16h-14.96Zm10.12-20.21c1.95,0,3.64-.45,5.06-1.37,1.42-.91,2.52-2.14,3.31-3.69.78-1.55,1.18-3.28,1.18-5.19,0-2.04-.38-3.86-1.15-5.47-.76-1.61-1.86-2.89-3.28-3.85-1.42-.96-3.13-1.43-5.12-1.43s-3.64.48-5.06,1.43c-1.42.96-2.51,2.23-3.28,3.82s-1.15,3.38-1.15,5.38.38,3.65,1.15,5.22,1.86,2.82,3.28,3.76c1.42.93,3.11,1.4,5.06,1.4Zm-126.32,6.74c-2.59,0-4.93-.41-7.03-1.24s-3.88-2.03-5.35-3.6c-1.46-1.57-2.59-3.43-3.37-5.57-.79-2.14-1.18-4.51-1.18-7.1,0-3.31.67-6.19,2-8.65,1.34-2.46,3.19-4.38,5.57-5.76,2.38-1.38,5.09-2.07,8.15-2.07,1.53,0,2.97.23,4.33.7,1.36.47,2.59,1.12,3.69,1.97s1.99,1.84,2.67,2.99h.06v-18.9h7.32v29.85c0,3.56-.71,6.65-2.13,9.26-1.42,2.61-3.39,4.61-5.92,6.01-2.52,1.4-5.46,2.1-8.81,2.1Zm0-6.24c1.87,0,3.51-.46,4.93-1.37,1.42-.91,2.53-2.17,3.34-3.79s1.21-3.48,1.21-5.6-.4-3.99-1.21-5.6c-.81-1.61-1.92-2.87-3.34-3.79-1.42-.91-3.09-1.37-5-1.37s-3.46.47-4.9,1.4c-1.44.93-2.57,2.21-3.37,3.82-.81,1.61-1.21,3.46-1.21,5.54s.4,3.99,1.21,5.6c.81,1.61,1.94,2.87,3.41,3.79,1.46.91,3.11,1.37,4.93,1.37Zm41.81,5.47c-3.65,0-6.84-.69-9.58-2.07-2.74-1.38-4.87-3.29-6.4-5.73-1.53-2.44-2.29-5.25-2.29-8.43,0-3.35.68-6.3,2.04-8.85,1.36-2.54,3.22-4.54,5.6-5.98,2.37-1.44,5.11-2.16,8.21-2.16,3.48,0,6.34.74,8.59,2.23,2.25,1.49,3.92,3.48,5,5.98,1.08,2.5,1.62,5.3,1.62,8.4,0,.42-.02.91-.06,1.46-.04.55-.11.98-.19,1.27h-23.04c.26,1.7.87,3.11,1.85,4.23.97,1.13,2.21,1.97,3.69,2.55,1.48.57,3.14.86,4.96.86h8.72v6.24h-8.72Zm-10.56-18.84h16.04c-.04-.81-.16-1.61-.35-2.42-.19-.81-.49-1.57-.89-2.29-.4-.72-.91-1.35-1.53-1.88-.62-.53-1.35-.95-2.19-1.27-.85-.32-1.83-.48-2.93-.48-1.27,0-2.4.24-3.37.73-.97.49-1.8,1.12-2.48,1.91-.68.78-1.2,1.68-1.56,2.67-.36,1-.61,2-.73,3.02Zm29.43,18.84v-6.53h16.4c.8,0,1.5-.18,2.1-.53.6-.36,1.07-.82,1.4-1.4.33-.58.5-1.18.5-1.8,0-.71-.16-1.33-.47-1.87-.31-.53-.76-.97-1.33-1.3-.58-.33-1.24-.5-2-.5h-6.67c-2.18,0-4.11-.36-5.8-1.07-1.69-.71-3.02-1.81-4-3.3-.98-1.49-1.47-3.37-1.47-5.63,0-1.82.45-3.49,1.37-5s2.14-2.73,3.7-3.67c1.56-.93,3.31-1.4,5.27-1.4h15.8v6.53h-15.07c-1.02,0-1.87.32-2.53.97-.67.64-1,1.43-1,2.37s.33,1.67,1,2.33c.67.67,1.56,1,2.67,1h6.47c2.44,0,4.53.38,6.27,1.13,1.73.76,3.06,1.89,3.97,3.4.91,1.51,1.37,3.42,1.37,5.73,0,1.87-.47,3.61-1.4,5.23s-2.21,2.91-3.83,3.87c-1.62.96-3.46,1.43-5.5,1.43h-17.2Zm37.86-38.78c-1.35,0-2.52-.49-3.51-1.48-.99-.99-1.49-2.16-1.49-3.51s.5-2.52,1.49-3.51c.99-.99,2.16-1.48,3.51-1.48s2.58.5,3.54,1.48c.97.99,1.45,2.16,1.45,3.51s-.48,2.52-1.45,3.51c-.97.99-2.15,1.48-3.54,1.48Zm-3.8,38.78v-34h7.67v34h-7.67Zm57.1,0v-18.71c0-2.8.64-5.29,1.91-7.48,1.27-2.18,3.08-3.9,5.41-5.15,2.33-1.25,5.07-1.88,8.21-1.88s5.86.63,8.18,1.88c2.31,1.25,4.11,2.97,5.38,5.15,1.27,2.19,1.91,4.68,1.91,7.48v18.71h-7.26v-18.65c0-1.65-.38-3.11-1.15-4.36-.76-1.25-1.77-2.23-3.02-2.93-1.25-.7-2.62-1.05-4.11-1.05s-2.79.35-4.04,1.05c-1.25.7-2.25,1.68-2.99,2.93-.74,1.25-1.12,2.7-1.12,4.36v18.65h-7.32Z"/>
  <path class="cls-2" d="m196.6,69.37l-10.31-29.3h8.32l8.86,26.23c.17.47.41.9.99.9.54,0,.84-.46.99-.9l8.86-26.23h8.14l-10.13,29.3c-1.64,4.01-4.73,5.25-7.96,5.25s-6.31-1.81-7.78-5.25Zm-14.97-18.39c0-6.27-4.91-10.73-10.73-10.73h-16.73v6.55h16.91c2.16,0,3.45,1.39,3.45,3.45v3.27c0,.36-.36.91-.91.91h-12.45c-6.08,0-10,5.19-10,9.64,0,6.34,4.72,10.18,10,10.18h10.82c5.27,0,9.64-4.36,9.64-9.64v-13.64Zm-7.09,13.09c0,1.65-1.39,3.64-3.82,3.64h-8.18c-2.29,0-4-2.05-4-4,0-2.36,1.79-4.18,4-4.18h11.09c.36,0,.91.36.91.91v3.64Zm-45.7-24.73c2.64,0,5.09.38,7.35,1.32,2.07.94,3.96,2.07,5.46,3.77,1.51,1.51,2.64,3.58,3.39,5.65.94,2.07,1.13,4.71,1.13,7.35,0,3.39-.75,6.41-2.07,8.86-1.51,2.64-3.39,4.52-5.65,6.03-2.45,1.51-5.28,2.07-8.48,2.07-1.51,0-3.01-.38-4.52-.75s-2.64-1.13-3.96-2.07c-1.13-.94-2.07-1.88-2.64-3.2h0v19.78h-7.54v-30.9c0-3.77.75-6.97,2.07-9.61,1.32-2.64,3.58-4.71,6.22-6.22,2.64-1.32,5.65-2.07,9.23-2.07h0Zm0,6.41c-1.88,0-3.58.38-5.09,1.51-1.51.94-2.64,2.26-3.39,3.96-.94,1.7-1.32,3.58-1.32,5.65s.38,3.96,1.32,5.65,2.07,3.01,3.39,3.96c1.51.94,3.2,1.51,5.09,1.51s3.58-.38,5.09-1.51c1.51-.94,2.64-2.26,3.39-3.96.94-1.7,1.32-3.58,1.32-5.65s-.38-4.15-1.32-5.65c-.94-1.7-2.07-3.01-3.39-3.96-1.51-.94-3.39-1.51-5.09-1.51Zm97.7,28.32V27.7h7.27v46.36h-7.27Zm29.82.55c-3.45,0-6.36-.91-9.09-2.36-2.55-1.45-4.73-3.64-6.18-6.18-1.45-2.55-2.36-5.45-2.36-8.73s.91-6.18,2.36-8.73c1.45-2.55,3.64-4.73,6.18-6.18,2.55-1.45,5.64-2.36,9.09-2.36s6.36.91,9.09,2.36c2.55,1.45,4.73,3.64,6.18,6.18,1.45,2.55,2.36,5.45,2.36,8.73s-.91,6-2.36,8.55-3.64,4.73-6.18,6.18c-2.73,1.82-5.82,2.55-9.09,2.55Zm0-6.36c2,0,3.82-.36,5.27-1.45,1.45-.91,2.55-2.18,3.45-3.82s1.27-3.45,1.27-5.45-.36-3.82-1.27-5.45-2-2.91-3.45-3.82c-1.45-.91-3.27-1.45-5.27-1.45s-3.82.36-5.27,1.45c-1.45.91-2.55,2.18-3.45,3.82-.91,1.64-1.27,3.45-1.27,5.45s.36,3.82,1.27,5.45c.91,1.64,2,2.91,3.45,3.82,1.45,1.09,3.27,1.45,5.27,1.45h0Zm24.6,6.02v-6.46h16.34c.76,0,1.52-.19,2.09-.57.57-.38.95-.95,1.52-1.52.38-.57.38-1.14.38-1.71,0-.76-.19-1.33-.38-1.9-.38-.57-.76-.95-1.33-1.33-.57-.38-1.33-.38-2.09-.38h-6.65c-2.09,0-3.99-.38-5.7-.95s-3.04-1.71-3.99-3.42c-.95-1.52-1.52-3.42-1.52-5.7,0-1.9.38-3.42,1.33-4.94.95-1.52,2.09-2.66,3.61-3.61s3.42-1.52,5.13-1.52h15.77v6.46h-14.82c-.95,0-1.9.38-2.47.95-.76.57-.95,1.52-.95,2.28,0,.95.38,1.52.95,2.28.76.76,1.52.95,2.66.95h6.46c2.47,0,4.56.38,6.27,1.14,1.71.76,3.04,1.9,3.99,3.42s1.33,3.42,1.33,5.7c0,1.9-.38,3.61-1.52,5.13-.95,1.52-2.09,2.85-3.8,3.99-1.52.95-3.42,1.52-5.51,1.52h-17.1v.19Z"/>
</svg>