<svg width="44" height="44" viewBox="0 0 44 44" fill="none" xmlns="http://www.w3.org/2000/svg">
<path d="M37.0874 28.6123L30.0873 25.6123C29.7883 25.4848 29.4559 25.458 29.1403 25.5358C28.8247 25.6135 28.5428 25.7917 28.3373 26.0435L25.2372 29.8311C20.372 27.5372 16.4566 23.6218 14.1626 18.7565L17.9502 15.6565C18.2025 15.4513 18.3811 15.1695 18.4589 14.8537C18.5367 14.5379 18.5095 14.2054 18.3815 13.9064L15.3814 6.90632C15.2409 6.58407 14.9923 6.32097 14.6785 6.16237C14.3647 6.00378 14.0055 5.95964 13.6626 6.03756L7.16252 7.53759C6.832 7.61391 6.5371 7.80001 6.32597 8.06552C6.11483 8.33103 5.99992 8.66026 6 8.99949C6 25.031 18.994 38 35.0005 38C35.3398 38.0002 35.6692 37.8854 35.9348 37.6742C36.2005 37.4631 36.3867 37.1681 36.463 36.8375L37.9631 30.3374C38.0405 29.9929 37.9954 29.6322 37.8356 29.3173C37.6758 29.0025 37.4112 28.7532 37.0874 28.6123Z" fill="#F5F3ED"/>
</svg>
