<?xml version="1.0" encoding="utf-8"?>
<!-- Generator: Adobe Illustrator 27.4.1, SVG Export Plug-In . SVG Version: 6.00 Build 0)  -->
<svg version="1.1" id="Layer_1" xmlns="http://www.w3.org/2000/svg" xmlns:xlink="http://www.w3.org/1999/xlink" x="0px" y="0px"
	 viewBox="0 0 64 64" style="enable-background:new 0 0 64 64;" xml:space="preserve">
<g>
<style type="text/css">
	.researchicon{fill:#1C3E68;}
</style>
	<path class="researchicon" d="M59.7,52.6L43.7,36.6c2.2-3.5,3.4-7.6,3.4-12c0-12.4-10.1-22.5-22.5-22.5C12.2,2.2,2.2,12.2,2.2,24.7s10.1,22.5,22.5,22.5
		c4.4,0,8.5-1.3,12-3.5l16,16c2,2,5.1,2,7.1,0C61.6,57.7,61.6,54.5,59.7,52.6z M28.2,41.8v-26c0-1.3-1-2.3-2.3-2.3H23
		c-1.3,0-2.3,1.1-2.3,2.3v25.9c-1.1-0.3-2.2-0.6-3.3-1.1V24.9c0-1.3-1-2.3-2.3-2.3h-2.9c-1.3,0-2.3,1-2.3,2.3v9
		c-1.7-2.7-2.7-5.9-2.7-9.3C7.2,15,15,7.2,24.7,7.2c9.7,0,17.5,7.9,17.5,17.5c0,3.7-1.2,7.2-3.2,10.1V21.9c0-1.3-1.1-2.3-2.3-2.3
		h-2.9c-1.3,0-2.3,1-2.3,2.3v18.8C30.4,41.2,29.3,41.6,28.2,41.8z"/>
</g>
</svg>
